<?xml version="1.0" encoding="UTF-8" standalone="no"?>
<!-- Created with Inkscape (http://www.inkscape.org/) -->

<svg
   xmlns:dc="http://purl.org/dc/elements/1.1/"
   xmlns:cc="http://creativecommons.org/ns#"
   xmlns:rdf="http://www.w3.org/1999/02/22-rdf-syntax-ns#"
   xmlns:svg="http://www.w3.org/2000/svg"
   xmlns="http://www.w3.org/2000/svg"
   xmlns:xlink="http://www.w3.org/1999/xlink"
   xmlns:sodipodi="http://sodipodi.sourceforge.net/DTD/sodipodi-0.dtd"
   xmlns:inkscape="http://www.inkscape.org/namespaces/inkscape"
   width="210mm"
   height="297mm"
   viewBox="0 0 210 297"
   version="1.1"
   id="svg8"
   sodipodi:docname="ADlogo.svg"
   inkscape:version="0.92.2 (5c3e80d, 2017-08-06)">
  <defs
     id="defs2">
    <linearGradient
       inkscape:collect="always"
       id="linearGradient997">
      <stop
         style="stop-color:#d5a500;stop-opacity:0.98000002"
         offset="0"
         id="stop993" />
      <stop
         style="stop-color:#d5a500;stop-opacity:0.995"
         offset="1"
         id="stop995" />
    </linearGradient>
    <marker
       inkscape:isstock="true"
       style="overflow:visible"
       id="marker3668"
       refX="0.0"
       refY="0.0"
       orient="auto"
       inkscape:stockid="TriangleOutL">
      <path
         transform="scale(0.8)"
         style="fill-rule:evenodd;stroke:#000000;stroke-width:1pt;stroke-opacity:1;fill:#000000;fill-opacity:1"
         d="M 5.77,0.0 L -2.88,5.0 L -2.88,-5.0 L 5.77,0.0 z "
         id="path3666" />
    </marker>
    <marker
       inkscape:stockid="Arrow2Mend"
       orient="auto"
       refY="0.0"
       refX="0.0"
       id="marker3474"
       style="overflow:visible;"
       inkscape:isstock="true">
      <path
         id="path3472"
         style="fill-rule:evenodd;stroke-width:0.625;stroke-linejoin:round;stroke:#000000;stroke-opacity:1;fill:#000000;fill-opacity:1"
         d="M 8.7185878,4.0337352 L -2.2072895,0.016013256 L 8.7185884,-4.0017078 C 6.9730900,-1.6296469 6.9831476,1.6157441 8.7185878,4.0337352 z "
         transform="scale(0.6) rotate(180) translate(0,0)" />
    </marker>
    <marker
       inkscape:stockid="Arrow2Mend"
       orient="auto"
       refY="0.0"
       refX="0.0"
       id="marker3428"
       style="overflow:visible;"
       inkscape:isstock="true">
      <path
         id="path3426"
         style="fill-rule:evenodd;stroke-width:0.625;stroke-linejoin:round;stroke:#000000;stroke-opacity:1;fill:#000000;fill-opacity:1"
         d="M 8.7185878,4.0337352 L -2.2072895,0.016013256 L 8.7185884,-4.0017078 C 6.9730900,-1.6296469 6.9831476,1.6157441 8.7185878,4.0337352 z "
         transform="scale(0.6) rotate(180) translate(0,0)" />
    </marker>
    <marker
       inkscape:stockid="Arrow2Mend"
       orient="auto"
       refY="0.0"
       refX="0.0"
       id="Arrow2Mend"
       style="overflow:visible;"
       inkscape:isstock="true">
      <path
         id="path865"
         style="fill-rule:evenodd;stroke-width:0.625;stroke-linejoin:round;stroke:#000000;stroke-opacity:1;fill:#000000;fill-opacity:1"
         d="M 8.7185878,4.0337352 L -2.2072895,0.016013256 L 8.7185884,-4.0017078 C 6.9730900,-1.6296469 6.9831476,1.6157441 8.7185878,4.0337352 z "
         transform="scale(0.6) rotate(180) translate(0,0)" />
    </marker>
    <marker
       inkscape:isstock="true"
       style="overflow:visible;"
       id="marker1128"
       refX="0.0"
       refY="0.0"
       orient="auto"
       inkscape:stockid="Arrow1Lend">
      <path
         transform="scale(0.8) rotate(180) translate(12.5,0)"
         style="fill-rule:evenodd;stroke:#000000;stroke-width:1pt;stroke-opacity:1;fill:#000000;fill-opacity:1"
         d="M 0.0,0.0 L 5.0,-5.0 L -12.5,0.0 L 5.0,5.0 L 0.0,0.0 z "
         id="path1126" />
    </marker>
    <linearGradient
       inkscape:collect="always"
       xlink:href="#linearGradient997"
       id="linearGradient1037"
       gradientUnits="userSpaceOnUse"
       x1="108.76265"
       y1="76.072914"
       x2="130.2128"
       y2="76.734375" />
  </defs>
  <sodipodi:namedview
     id="base"
     pagecolor="#1d1d1d"
     bordercolor="#666666"
     borderopacity="1.0"
     inkscape:pageopacity="0"
     inkscape:pageshadow="2"
     inkscape:zoom="2.8"
     inkscape:cx="413.31544"
     inkscape:cy="832.888"
     inkscape:document-units="mm"
     inkscape:current-layer="layer1"
     showgrid="false"
     inkscape:window-width="1920"
     inkscape:window-height="1015"
     inkscape:window-x="1920"
     inkscape:window-y="0"
     inkscape:window-maximized="1">
    <inkscape:grid
       type="xygrid"
       id="grid10" />
  </sodipodi:namedview>
  <metadata
     id="metadata5">
    <rdf:RDF>
      <cc:Work
         rdf:about="">
        <dc:format>image/svg+xml</dc:format>
        <dc:type
           rdf:resource="http://purl.org/dc/dcmitype/StillImage" />
        <dc:title></dc:title>
      </cc:Work>
    </rdf:RDF>
  </metadata>
  <g
     inkscape:label="Layer 1"
     inkscape:groupmode="layer"
     id="layer1">
    <g
       id="g156"
       style="fill-opacity:1;fill:url(#linearGradient1037)">
      <text
         id="text1398"
         y="16.541666"
         x="108.47916"
         style="font-style:normal;font-weight:normal;font-size:4.76249981px;line-height:125%;font-family:Sans;letter-spacing:0px;word-spacing:0px;fill:url(#linearGradient1037);fill-opacity:1;stroke:none;stroke-width:0.26458332px;stroke-linecap:butt;stroke-linejoin:miter;stroke-opacity:1"
         xml:space="preserve"><tspan
           style="stroke-width:0.26458332px;fill-opacity:1;fill:url(#linearGradient1037)"
           y="20.755362"
           x="108.47916"
           id="tspan1396"
           sodipodi:role="line" /></text>
      <g
         id="g82"
         style="fill-opacity:1;fill:url(#linearGradient1037)">
        <path
           id="path12"
           transform="scale(0.26458333)"
           d="M 313.52539 231.26562 L 309.51953 238.19727 L 313.02148 238.19727 L 313.02148 355.88867 L 314.02539 355.88867 L 314.02539 238.19727 L 317.53125 238.19727 L 313.52539 231.26562 z "
           style="color:#000000;font-style:normal;font-variant:normal;font-weight:normal;font-stretch:normal;font-size:medium;line-height:normal;font-family:sans-serif;font-variant-ligatures:normal;font-variant-position:normal;font-variant-caps:normal;font-variant-numeric:normal;font-variant-alternates:normal;font-feature-settings:normal;text-indent:0;text-align:start;text-decoration:none;text-decoration-line:none;text-decoration-style:solid;text-decoration-color:#000000;letter-spacing:normal;word-spacing:normal;text-transform:none;writing-mode:lr-tb;direction:ltr;text-orientation:mixed;dominant-baseline:auto;baseline-shift:baseline;text-anchor:start;white-space:normal;shape-padding:0;clip-rule:nonzero;display:inline;overflow:visible;visibility:visible;opacity:1;isolation:auto;mix-blend-mode:normal;color-interpolation:sRGB;color-interpolation-filters:linearRGB;solid-color:#000000;solid-opacity:1;vector-effect:none;fill:url(#linearGradient1037);fill-opacity:1;fill-rule:evenodd;stroke:none;stroke-width:1.00157475;stroke-linecap:butt;stroke-linejoin:miter;stroke-miterlimit:4;stroke-dasharray:none;stroke-dashoffset:0;stroke-opacity:1;color-rendering:auto;image-rendering:auto;shape-rendering:auto;text-rendering:auto;enable-background:accumulate" />
      </g>
      <path
         id="path14"
         transform="scale(0.26458333)"
         d="M 351.39258 233.94922 C 334.55114 233.94922 315.66797 293.94922 315.66797 293.94922 L 385.38281 293.94922 C 385.77652 293.3479 386.15474 292.74122 386.54492 292.13867 C 377.29055 262.75728 367.89349 233.94922 351.39258 233.94922 z M 386.54492 292.13867 C 386.7359 292.74502 386.92822 293.34263 387.11914 293.94922 L 393.38281 293.94922 C 400.28155 282.8634 407.54976 269.88013 413.01172 258.82617 L 414.45312 256.07227 L 414.45312 264.07227 C 414.78248 275.04983 415.03306 284.30965 415.48633 293.94922 L 428.99609 293.94922 C 428.10176 281.55038 427.69727 269.5684 427.69727 257.38477 L 427.69727 238.89648 C 427.82842 237.4541 427.17285 236.79688 425.73047 236.79688 C 421.40329 236.79688 416.28978 240.46927 414.97852 243.0918 C 414.84737 243.61629 414.71484 244.01038 414.71484 244.66602 C 414.71484 245.84615 414.71528 245.8457 413.53516 245.8457 L 412.48633 245.8457 L 410.25781 250.30273 C 403.32998 264.53286 395.38251 278.491 386.54492 292.13867 z M 428.99609 293.94922 C 429.12204 295.69528 429.25666 297.44857 429.40234 299.21289 C 429.92683 307.47385 430.58156 311.93216 431.76172 317.43945 C 432.2862 319.53748 433.33536 323.99642 433.59766 324.7832 C 434.25329 326.35673 435.1709 326.62003 436.61328 327.14453 L 438.05664 326.35742 C 440.81029 325.04615 442.90694 324.25977 444.48047 324.25977 C 445.54096 324.25977 446.17353 324.54554 446.43555 325.2168 C 453.57441 309.80596 458.57227 293.94922 458.57227 293.94922 L 428.99609 293.94922 z M 446.43555 325.2168 C 445.81248 326.56184 445.17734 327.90308 444.52344 329.23047 C 445.05917 328.74626 445.51023 328.247 445.92383 327.66797 C 446.3172 326.88122 446.44897 326.61828 446.58008 326.09375 C 446.58008 325.74656 446.52991 325.45854 446.43555 325.2168 z M 444.52344 329.23047 C 443.36068 330.2814 441.75738 331.25522 438.97461 332.78125 C 435.9587 334.35478 434.51544 334.8798 432.67969 335.4043 C 431.10619 335.92871 429.13965 336.19141 427.69727 336.19141 C 424.94362 336.19141 422.45135 334.74956 421.40234 333.04492 C 420.87786 332.25817 420.61711 331.33924 419.69922 327.79883 C 418.5191 323.07828 417.60069 318.48955 417.07617 314.03125 C 416.9451 312.71997 416.81279 311.53968 416.68164 311.27734 L 416.68164 310.88477 L 399.50391 310.88477 L 392.54883 310.83008 C 400.41427 334.25693 409.20233 353.94922 422.8457 353.94922 C 430.27321 353.94922 438.09632 342.27719 444.52344 329.23047 z M 392.54883 310.83008 C 391.60256 308.01166 390.67447 305.12348 389.74805 302.22461 L 389.4082 302.36133 C 388.62146 302.62367 387.96513 302.88477 387.83398 302.88477 L 387.70312 302.88477 L 387.96484 302.36133 L 389.18945 300.46484 C 388.49941 298.29309 387.80633 296.13254 387.11914 293.94922 L 385.38281 293.94922 C 382.20385 298.80446 378.91195 303.62011 375.50781 308.39258 C 368.55812 318.22706 364.10069 323.0791 360.69141 324.52148 C 360.1669 324.78382 359.64196 324.7832 358.98633 324.7832 C 355.57704 324.7832 350.98713 322.16011 350.59375 318.35742 C 350.33149 316.91503 350.07077 315.86719 348.89062 315.86719 C 346.79261 315.86719 343.12109 321.37406 343.12109 326.61914 C 343.12109 333.8311 349.02145 338.81445 354.79102 338.81445 C 359.90495 338.81445 365.93657 333.43845 374.06641 322.42383 C 375.77104 320.3258 378.39388 316.5223 380.62305 313.24414 L 382.32812 310.75195 L 392.54883 310.83008 z M 389.18945 300.46484 C 389.3758 301.05135 389.56122 301.64002 389.74805 302.22461 L 390.71875 301.83594 L 416.02734 301.83594 L 415.76367 299.60742 C 415.65692 297.68585 415.57449 295.82407 415.48633 293.94922 L 393.38281 293.94922 C 393.32554 294.04126 393.26816 294.1387 393.21094 294.23047 L 389.18945 300.46484 z "
         style="fill:url(#linearGradient1037);fill-opacity:1;fill-rule:evenodd;stroke:none;stroke-width:0.77164418px;stroke-linecap:butt;stroke-linejoin:miter;stroke-opacity:1" />
      <path
         inkscape:connector-curvature="0"
         d="m 124.97034,60.815086 q -0.36277,0 -0.54648,0.358117 -0.18139,0.355793 -0.18139,1.072028 0,0.71391 0.18139,1.072027 0.18371,0.355793 0.54648,0.355793 0.36509,0 0.54648,-0.355793 0.18371,-0.358117 0.18371,-1.072027 0,-0.716235 -0.18371,-1.072028 -0.18139,-0.358117 -0.54648,-0.358117 z m 0,-0.372071 q 0.58368,0 0.89064,0.462763 0.30928,0.460437 0.30928,1.339453 0,0.876691 -0.30928,1.339453 -0.30696,0.460437 -0.89064,0.460437 -0.58369,0 -0.89297,-0.460437 -0.30696,-0.462762 -0.30696,-1.339453 0,-0.879016 0.30696,-1.339453 0.30928,-0.462763 0.89297,-0.462763 z"
         style="font-style:normal;font-weight:normal;font-size:medium;line-height:125%;font-family:Sans;letter-spacing:0px;word-spacing:0px;fill:url(#linearGradient1037);fill-opacity:1;stroke:none;stroke-width:0.26458332px;stroke-linecap:butt;stroke-linejoin:miter;stroke-opacity:1"
         id="path1869" />
      <path
         inkscape:connector-curvature="0"
         d="m 127.21268,69.440987 h 0.76739 v -2.648676 l -0.83483,0.167432 v -0.427881 l 0.83018,-0.167432 h 0.46974 v 3.076557 h 0.7674 v 0.395324 h -1.99988 z"
         style="font-style:normal;font-weight:normal;font-size:medium;line-height:125%;font-family:Sans;letter-spacing:0px;word-spacing:0px;fill:url(#linearGradient1037);fill-opacity:1;stroke:none;stroke-width:0.26458332px;stroke-linecap:butt;stroke-linejoin:miter;stroke-opacity:1"
         id="path1866" />
      <path
         inkscape:connector-curvature="0"
         d="m 130.78171,74.611214 q -0.36276,0 -0.54647,0.358117 -0.18139,0.355793 -0.18139,1.072028 0,0.71391 0.18139,1.072028 0.18371,0.355792 0.54647,0.355792 0.3651,0 0.54648,-0.355792 0.18371,-0.358118 0.18371,-1.072028 0,-0.716235 -0.18371,-1.072028 -0.18138,-0.358117 -0.54648,-0.358117 z m 0,-0.37207 q 0.58369,0 0.89065,0.462762 0.30928,0.460437 0.30928,1.339453 0,0.876691 -0.30928,1.339453 -0.30696,0.460437 -0.89065,0.460437 -0.58368,0 -0.89296,-0.460437 -0.30696,-0.462762 -0.30696,-1.339453 0,-0.879016 0.30696,-1.339453 0.30928,-0.462762 0.89296,-0.462762 z"
         style="font-style:normal;font-weight:normal;font-size:medium;line-height:125%;font-family:Sans;letter-spacing:0px;word-spacing:0px;fill:url(#linearGradient1037);fill-opacity:1;stroke:none;stroke-width:0.26458332px;stroke-linecap:butt;stroke-linejoin:miter;stroke-opacity:1"
         id="path1863" />
      <path
         id="path1860"
         transform="scale(0.26458333)"
         d="M 504.29297 230.58984 C 502.82225 230.58984 501.69726 231.17187 500.91797 232.33789 C 500.14453 233.49805 499.75781 235.18555 499.75781 237.40039 C 499.75781 239.60938 500.14453 241.29688 500.91797 242.46289 C 500.98192 242.5581 501.05249 242.64308 501.12109 242.73047 C 502.19088 242.74327 503.24731 242.76376 504.25 242.79102 C 503.35865 242.77627 502.68366 242.33461 502.22852 241.45312 C 501.77147 240.55084 501.54297 239.19922 501.54297 237.40039 C 501.54297 235.5957 501.77147 234.2461 502.22852 233.34961 C 502.69141 232.44727 503.3789 231.99609 504.29297 231.99609 C 505.21288 231.99609 505.90233 232.44727 506.35938 233.34961 C 506.82221 234.2461 507.05273 235.5957 507.05273 237.40039 C 507.05273 239.19922 506.82221 240.55084 506.35938 241.45312 C 505.90683 242.34078 505.2247 242.78423 504.31836 242.79297 C 505.34666 242.82135 506.35965 242.85552 507.32422 242.90234 C 507.44222 242.76609 507.55503 242.62058 507.66016 242.46289 C 508.43944 241.29688 508.82813 239.60938 508.82812 237.40039 C 508.82812 235.18555 508.43944 233.49805 507.66016 232.33789 C 506.88671 231.17187 505.76366 230.58984 504.29297 230.58984 z M 507.32422 242.90234 C 506.57401 243.76856 505.56377 244.20313 504.29297 244.20312 C 502.94294 244.20312 501.88852 243.70803 501.12109 242.73047 C 499.91417 242.71602 498.73465 242.69727 497.43359 242.69727 C 492.58193 242.69727 487.86155 242.83008 486.8125 242.83008 C 468.06143 244.01022 450.62106 254.36799 446.81836 266.43164 C 446.68721 267.34953 446.42578 267.87394 446.42578 268.39844 C 446.42578 269.44746 447.34278 269.97266 448.78516 269.97266 C 452.32559 269.57927 456.78505 267.08765 458.75195 264.33398 C 458.8831 263.9406 459.2768 263.15372 459.53906 262.49805 C 462.03049 254.63048 469.11029 252.53256 479.20703 251.87695 C 479.99382 251.74561 479.99302 251.48448 479.59961 255.28711 C 478.41867 267.61319 476.19979 280.18801 473.01172 292.54492 L 475.19727 292.54492 L 475.19727 289.03711 L 482.12695 293.04492 L 475.19727 297.05078 L 475.19727 293.54883 L 472.74219 293.54883 C 470.31362 302.80018 467.34999 311.92387 463.86523 320.71875 L 462.81641 323.33984 L 461.37305 323.86523 C 459.14392 324.52087 457.04619 325.83272 455.47266 327.40625 C 454.55637 328.19162 453.37913 329.62921 453.375 330.67773 C 453.66506 330.62132 453.96946 330.58984 454.29297 330.58984 C 455.71556 330.58984 456.80987 331.13947 457.58008 332.23047 C 459.05497 332.24869 460.75417 332.25781 464.91406 332.25781 C 475.17004 332.12811 476.31464 332.12273 480.4082 331.48633 C 479.97416 330.41683 479.75781 329.05518 479.75781 327.40039 C 479.75781 325.64368 480.00562 324.22407 480.49219 323.13086 C 479.88503 323.15492 479.3107 323.19516 478.68164 323.20898 L 473.83008 323.20898 L 475.66602 318.75195 C 482.6157 301.31215 487.46846 284.00258 490.48438 266.43164 C 491.27104 261.44884 492.45117 253.18795 492.45117 252.00781 C 492.45117 251.74548 492.58314 251.74609 494.15625 251.74609 C 503.33514 251.74609 511.2028 253.58068 517.10352 256.20312 C 519.624 257.52338 521.90773 259.03162 523.87109 260.82617 L 525.46289 260.82617 L 525.46289 262.43555 C 528.99129 266.35949 531.13281 271.55406 531.13281 278.88867 L 531.13281 280.85547 C 531.13281 282.9535 531.00105 284.26445 530.47656 286.75586 C 527.98517 299.60626 519.59399 310.09797 507.00586 316.6543 C 500.85324 319.68326 495.03433 321.61209 487.78906 322.55273 C 488.47966 323.70308 488.82813 325.31538 488.82812 327.40039 C 488.82812 328.36172 488.73939 329.20495 488.5918 329.96875 C 499.88362 327.29715 510.66947 322.31709 519.86719 315.61133 C 520.02695 314.26012 520.37004 313.15978 520.91797 312.33789 C 521.69726 311.17188 522.82228 310.58984 524.29297 310.58984 C 524.84308 310.58984 525.34432 310.67085 525.79688 310.83398 C 528.78647 308.17057 531.42161 305.37322 533.70508 302.46094 L 533.70508 302.44336 L 530.54883 303.07617 L 530.54883 301.45898 L 533.6875 300.82617 L 534.93945 300.82617 C 538.77923 295.54977 541.46458 289.9117 542.95898 284.00977 C 542.12408 283.75381 541.44121 283.24183 540.91797 282.46289 C 540.14453 281.29688 539.75781 279.60938 539.75781 277.40039 C 539.75781 275.18555 540.14453 273.49805 540.91797 272.33789 C 541.6948 271.17559 542.81549 270.59355 544.2793 270.58984 C 543.78026 263.47538 541.26176 258.10696 537.25781 253.94922 L 530.80469 253.94922 L 530.80469 252.45508 L 533.70508 252.45508 L 533.70508 250.83789 C 532.96366 250.28704 532.19894 249.75501 531.39453 249.25391 C 524.03382 244.91814 517.25999 243.38465 507.32422 242.90234 z M 533.70508 250.83789 C 534.31106 251.28811 534.90142 251.75045 535.46289 252.23633 L 535.46289 240.82617 L 533.6875 240.82617 L 530.54883 241.45898 L 530.54883 243.07617 L 533.70508 242.44336 L 533.70508 250.83789 z M 535.46289 252.23633 L 535.46289 252.45508 L 535.70898 252.45508 C 535.62685 252.38232 535.54603 252.30827 535.46289 252.23633 z M 535.70898 252.45508 C 536.24917 252.93357 536.76219 253.43456 537.25781 253.94922 L 538.36328 253.94922 L 538.36328 252.45508 L 535.70898 252.45508 z M 544.2793 270.58984 C 544.31185 271.05388 544.3364 271.52482 544.35156 272.00391 C 545.24037 272.0239 545.91269 272.46772 546.35938 273.34961 C 546.82227 274.24609 547.05273 275.5957 547.05273 277.40039 C 547.05273 279.19922 546.82227 280.55078 546.35938 281.45312 C 545.90233 282.34961 545.21288 282.79688 544.29297 282.79688 C 543.92231 282.79688 543.5992 282.70405 543.30273 282.55664 C 543.2648 282.73515 543.23723 282.90608 543.19727 283.08594 C 543.1258 283.39562 543.03703 283.70152 542.95898 284.00977 C 543.36759 284.13503 543.80972 284.20312 544.29297 284.20312 C 545.76368 284.20313 546.88674 283.62305 547.66016 282.46289 C 548.43947 281.29688 548.82812 279.60938 548.82812 277.40039 C 548.82812 275.18555 548.43947 273.49805 547.66016 272.33789 C 546.88674 271.17188 545.76368 270.58984 544.29297 270.58984 C 544.28828 270.58984 544.28398 270.58983 544.2793 270.58984 z M 543.30273 282.55664 C 544.01153 279.22124 544.37695 276.1127 544.37695 273.25 C 544.37695 272.82773 544.36457 272.4149 544.35156 272.00391 C 544.33095 272.00344 544.31382 271.99609 544.29297 271.99609 C 543.3789 271.99609 542.69141 272.44726 542.22852 273.34961 C 541.7715 274.24609 541.54297 275.5957 541.54297 277.40039 C 541.54297 279.19922 541.7715 280.55078 542.22852 281.45312 C 542.5037 281.98608 542.86809 282.34053 543.30273 282.55664 z M 534.93945 300.82617 C 534.54022 301.37478 534.12904 301.92023 533.70508 302.46094 L 533.70508 312.45508 L 530.80469 312.45508 L 530.80469 313.94922 L 538.36328 313.94922 L 538.36328 312.45508 L 535.46289 312.45508 L 535.46289 300.82617 L 534.93945 300.82617 z M 525.79688 310.83398 C 525.35173 311.23056 524.90008 311.62504 524.43945 312.01562 C 525.28251 312.06386 525.92825 312.4984 526.35938 313.34961 C 526.82224 314.2461 527.05273 315.5957 527.05273 317.40039 C 527.05273 319.19922 526.82224 320.55081 526.35938 321.45312 C 525.90235 322.34961 525.21291 322.79688 524.29297 322.79688 C 523.37893 322.79688 522.69141 322.34961 522.22852 321.45312 C 521.77147 320.55081 521.54297 319.19922 521.54297 317.40039 C 521.54297 316.00021 521.68386 314.88083 521.95898 314.02734 C 521.5643 314.335 521.17817 314.64567 520.77344 314.94922 C 520.47463 315.17333 520.16948 315.39094 519.86719 315.61133 C 519.80144 316.16745 519.75781 316.75461 519.75781 317.40039 C 519.75781 319.60938 520.14453 321.29688 520.91797 322.46289 C 521.69726 323.62305 522.82228 324.20312 524.29297 324.20312 C 525.76368 324.20312 526.88671 323.62305 527.66016 322.46289 C 528.43944 321.29688 528.82812 319.60938 528.82812 317.40039 C 528.82812 315.18555 528.43944 313.49805 527.66016 312.33789 C 527.17601 311.60802 526.55419 311.10699 525.79688 310.83398 z M 521.95898 314.02734 C 522.8082 313.36539 523.63698 312.69614 524.43945 312.01562 C 524.38881 312.01276 524.3451 311.99609 524.29297 311.99609 C 523.37893 311.99609 522.69141 312.44727 522.22852 313.34961 C 522.12607 313.55055 522.03847 313.78078 521.95898 314.02734 z M 488.5918 329.96875 C 487.97447 330.11481 487.35447 330.24673 486.73438 330.37891 C 486.63141 330.78029 486.51393 331.15179 486.35938 331.45312 C 485.90233 332.34961 485.21288 332.79687 484.29297 332.79688 C 483.3789 332.79688 482.69141 332.34961 482.22852 331.45312 C 482.19426 331.38554 482.17036 331.29728 482.13867 331.22461 C 481.59864 331.30857 481.05882 331.39756 480.51758 331.4707 C 480.47586 331.47722 480.44931 331.47994 480.4082 331.48633 C 480.55356 331.84451 480.72393 332.17036 480.91797 332.46289 C 481.69726 333.62305 482.82225 334.20313 484.29297 334.20312 C 485.76366 334.20313 486.88671 333.62305 487.66016 332.46289 C 488.10031 331.80431 488.40025 330.96005 488.5918 329.96875 z M 482.13867 331.22461 C 483.67706 330.98544 485.20933 330.70396 486.73438 330.37891 C 486.93964 329.57853 487.05273 328.59841 487.05273 327.40039 C 487.05273 325.5957 486.82222 324.24609 486.35938 323.34961 C 486.24695 323.12765 486.11895 322.93299 485.97852 322.76562 C 484.83677 322.88427 483.64715 322.97368 482.42578 323.04688 C 482.35955 323.14707 482.28744 323.23475 482.22852 323.34961 C 481.7715 324.24609 481.54297 325.5957 481.54297 327.40039 C 481.54297 329.06439 481.7476 330.32774 482.13867 331.22461 z M 482.42578 323.04688 C 482.87987 322.35963 483.49526 321.99609 484.29297 321.99609 C 484.9866 321.99609 485.54805 322.25266 485.97852 322.76562 C 486.59194 322.70193 487.19584 322.62975 487.78906 322.55273 C 487.74606 322.4811 487.70584 322.4059 487.66016 322.33789 C 486.88671 321.17188 485.76366 320.58984 484.29297 320.58984 C 482.82225 320.58984 481.69726 321.17188 480.91797 322.33789 C 480.75799 322.57786 480.61908 322.84576 480.49219 323.13086 C 481.14062 323.10516 481.80069 323.08428 482.42578 323.04688 z M 525.46289 262.43555 C 524.9586 261.87472 524.43027 261.33727 523.87109 260.82617 L 523.6875 260.82617 L 520.54883 261.45898 L 520.54883 263.07617 L 523.70508 262.44336 L 523.70508 272.45508 L 520.80469 272.45508 L 520.80469 273.94922 L 528.36328 273.94922 L 528.36328 272.45508 L 525.46289 272.45508 L 525.46289 262.43555 z M 457.58008 332.23047 C 456.64623 332.21893 455.48637 332.20275 455.14258 332.17188 C 455.64526 332.37448 456.05798 332.75456 456.35938 333.34961 C 456.82223 334.24609 457.05273 335.5957 457.05273 337.40039 C 457.05273 339.19922 456.82223 340.55082 456.35938 341.45312 C 455.90233 342.34961 455.21288 342.79688 454.29297 342.79688 C 453.3789 342.79688 452.69141 342.34961 452.22852 341.45312 C 451.7715 340.55082 451.54297 339.19922 451.54297 337.40039 C 451.54297 335.5957 451.7715 334.24609 452.22852 333.34961 C 452.69141 332.44726 453.3789 331.99609 454.29297 331.99609 C 453.63737 331.60271 453.375 331.20812 453.375 330.68359 C 453.375 330.68175 453.37499 330.67958 453.375 330.67773 C 452.34643 330.8778 451.52584 331.42836 450.91797 332.33789 C 450.14453 333.49805 449.75781 335.18555 449.75781 337.40039 C 449.75781 339.60938 450.14453 341.29688 450.91797 342.46289 C 451.69726 343.62305 452.82225 344.20312 454.29297 344.20312 C 455.76366 344.20313 456.88671 343.62305 457.66016 342.46289 C 458.43944 341.29688 458.82813 339.60938 458.82812 337.40039 C 458.82812 335.18555 458.43944 333.49805 457.66016 332.33789 C 457.63486 332.29976 457.60612 332.26736 457.58008 332.23047 z M 454.29297 331.99609 C 454.46454 332.08191 454.71145 332.13311 455.14258 332.17188 C 454.88298 332.06722 454.60625 331.99609 454.29297 331.99609 z M 472.74219 293.54883 C 472.83017 293.21367 472.92516 292.88041 473.01172 292.54492 L 306.48828 292.54492 L 306.48828 293.54883 L 472.74219 293.54883 z M 504.31836 242.79297 C 504.29498 242.79232 504.27341 242.79165 504.25 242.79102 C 504.26517 242.79127 504.27768 242.79688 504.29297 242.79688 C 504.30203 242.79688 504.30934 242.79306 504.31836 242.79297 z "
         style="font-style:normal;font-weight:normal;font-size:medium;line-height:125%;font-family:Sans;letter-spacing:0px;word-spacing:0px;fill:url(#linearGradient1037);fill-opacity:1;stroke:none;stroke-width:0.99999994px;stroke-linecap:butt;stroke-linejoin:miter;stroke-opacity:1" />
      <path
         inkscape:connector-curvature="0"
         d="m 137.58528,91.431146 q -0.36276,0 -0.54647,0.358118 -0.18139,0.355792 -0.18139,1.072027 0,0.71391 0.18139,1.072028 0.18371,0.355792 0.54647,0.355792 0.3651,0 0.54648,-0.355792 0.18371,-0.358118 0.18371,-1.072028 0,-0.716235 -0.18371,-1.072027 -0.18138,-0.358118 -0.54648,-0.358118 z m 0,-0.37207 q 0.58369,0 0.89065,0.462762 0.30928,0.460437 0.30928,1.339453 0,0.876691 -0.30928,1.339453 -0.30696,0.460437 -0.89065,0.460437 -0.58368,0 -0.89296,-0.460437 -0.30696,-0.462762 -0.30696,-1.339453 0,-0.879016 0.30696,-1.339453 0.30928,-0.462762 0.89296,-0.462762 z"
         style="font-style:normal;font-weight:normal;font-size:medium;line-height:125%;font-family:Sans;letter-spacing:0px;word-spacing:0px;fill:url(#linearGradient1037);fill-opacity:1;stroke:none;stroke-width:0.26458332px;stroke-linecap:butt;stroke-linejoin:miter;stroke-opacity:1"
         id="path1854" />
      <path
         inkscape:connector-curvature="0"
         d="m 136.07337,77.25705 q -0.36277,0 -0.54648,0.358117 -0.18138,0.355793 -0.18138,1.072028 0,0.71391 0.18138,1.072027 0.18371,0.355793 0.54648,0.355793 0.36509,0 0.54648,-0.355793 0.18371,-0.358117 0.18371,-1.072027 0,-0.716235 -0.18371,-1.072028 -0.18139,-0.358117 -0.54648,-0.358117 z m 0,-0.372071 q 0.58369,0 0.89064,0.462763 0.30929,0.460437 0.30929,1.339453 0,0.876691 -0.30929,1.339453 -0.30695,0.460437 -0.89064,0.460437 -0.58368,0 -0.89297,-0.460437 -0.30696,-0.462762 -0.30696,-1.339453 0,-0.879016 0.30696,-1.339453 0.30929,-0.462763 0.89297,-0.462763 z"
         style="font-style:normal;font-weight:normal;font-size:medium;line-height:125%;font-family:Sans;letter-spacing:0px;word-spacing:0px;fill:url(#linearGradient1037);fill-opacity:1;stroke:none;stroke-width:0.26458332px;stroke-linecap:butt;stroke-linejoin:miter;stroke-opacity:1"
         id="path1851" />
      <path
         inkscape:connector-curvature="0"
         d="m 143.08767,80.024323 h 0.7674 v -2.648676 l -0.83484,0.167432 v -0.427881 l 0.83018,-0.167432 h 0.46974 v 3.076557 h 0.7674 v 0.395324 h -1.99988 z"
         style="font-style:normal;font-weight:normal;font-size:medium;line-height:125%;font-family:Sans;letter-spacing:0px;word-spacing:0px;fill:url(#linearGradient1037);fill-opacity:1;stroke:none;stroke-width:0.26458332px;stroke-linecap:butt;stroke-linejoin:miter;stroke-opacity:1"
         id="path1845" />
      <path
         inkscape:connector-curvature="0"
         d="m 131.8429,90.985622 h 0.76739 v -2.648675 l -0.83483,0.167431 v -0.427881 l 0.83018,-0.167431 h 0.46974 v 3.076556 h 0.7674 v 0.395325 h -1.99988 z"
         style="font-style:normal;font-weight:normal;font-size:medium;line-height:125%;font-family:Sans;letter-spacing:0px;word-spacing:0px;fill:url(#linearGradient1037);fill-opacity:1;stroke:none;stroke-width:0.26458332px;stroke-linecap:butt;stroke-linejoin:miter;stroke-opacity:1"
         id="path1842" />
      <path
         inkscape:connector-curvature="0"
         d="m 103.40018,72.086823 h 0.76739 v -2.648676 l -0.83483,0.167432 v -0.427881 l 0.83018,-0.167432 h 0.46974 v 3.076557 h 0.7674 v 0.395324 h -1.99988 z"
         style="font-style:normal;font-weight:normal;font-size:medium;line-height:125%;font-family:Sans;letter-spacing:0px;word-spacing:0px;fill:url(#linearGradient1037);fill-opacity:1;stroke:none;stroke-width:0.26458332px;stroke-linecap:butt;stroke-linejoin:miter;stroke-opacity:1"
         id="path1830" />
      <path
         inkscape:connector-curvature="0"
         d="m 118.42473,66.700657 h 0.76739 v -2.648676 l -0.83483,0.167432 v -0.427881 l 0.83018,-0.167432 h 0.46974 v 3.076557 h 0.7674 v 0.395324 h -1.99988 z"
         style="font-style:normal;font-weight:normal;font-size:medium;line-height:125%;font-family:Sans;letter-spacing:0px;word-spacing:0px;fill:url(#linearGradient1037);fill-opacity:1;stroke:none;stroke-width:0.26458332px;stroke-linecap:butt;stroke-linejoin:miter;stroke-opacity:1"
         id="path1827" />
      <path
         inkscape:connector-curvature="0"
         d="m 116.62936,74.732651 h 0.76739 v -2.648676 l -0.83483,0.167432 v -0.427881 l 0.83018,-0.167432 h 0.46974 v 3.076557 h 0.7674 v 0.395324 h -1.99988 z"
         style="font-style:normal;font-weight:normal;font-size:medium;line-height:125%;font-family:Sans;letter-spacing:0px;word-spacing:0px;fill:url(#linearGradient1037);fill-opacity:1;stroke:none;stroke-width:0.26458332px;stroke-linecap:butt;stroke-linejoin:miter;stroke-opacity:1"
         id="path1824" />
      <path
         inkscape:connector-curvature="0"
         d="m 138.71921,58.73621 q -0.36276,0 -0.54647,0.358118 -0.18139,0.355792 -0.18139,1.072027 0,0.71391 0.18139,1.072028 0.18371,0.355792 0.54647,0.355792 0.3651,0 0.54648,-0.355792 0.18371,-0.358118 0.18371,-1.072028 0,-0.716235 -0.18371,-1.072027 -0.18138,-0.358118 -0.54648,-0.358118 z m 0,-0.37207 q 0.58369,0 0.89065,0.462762 0.30928,0.460437 0.30928,1.339453 0,0.876691 -0.30928,1.339453 -0.30696,0.460437 -0.89065,0.460437 -0.58368,0 -0.89296,-0.460437 -0.30696,-0.462762 -0.30696,-1.339453 0,-0.879016 0.30696,-1.339453 0.30928,-0.462762 0.89296,-0.462762 z"
         style="font-style:normal;font-weight:normal;font-size:medium;line-height:125%;font-family:Sans;letter-spacing:0px;word-spacing:0px;fill:url(#linearGradient1037);fill-opacity:1;stroke:none;stroke-width:0.26458332px;stroke-linecap:butt;stroke-linejoin:miter;stroke-opacity:1"
         id="path1815" />
      <path
         inkscape:connector-curvature="0"
         d="m 143.08767,87.983765 h 0.7674 v -2.648676 l -0.83484,0.167432 V 85.07464 l 0.83018,-0.167432 h 0.46974 v 3.076557 h 0.7674 v 0.395324 h -1.99988 z"
         style="font-style:normal;font-weight:normal;font-size:medium;line-height:125%;font-family:Sans;letter-spacing:0px;word-spacing:0px;fill:url(#linearGradient1037);fill-opacity:1;stroke:none;stroke-width:0.26458332px;stroke-linecap:butt;stroke-linejoin:miter;stroke-opacity:1"
         id="path1809" />
      <path
         inkscape:connector-curvature="0"
         d="m 146.65671,82.548714 q -0.36276,0 -0.54647,0.358117 -0.18139,0.355793 -0.18139,1.072028 0,0.71391 0.18139,1.072028 0.18371,0.355792 0.54647,0.355792 0.3651,0 0.54648,-0.355792 0.18371,-0.358118 0.18371,-1.072028 0,-0.716235 -0.18371,-1.072028 -0.18138,-0.358117 -0.54648,-0.358117 z m 0,-0.37207 q 0.58369,0 0.89065,0.462762 0.30928,0.460437 0.30928,1.339453 0,0.876691 -0.30928,1.339453 -0.30696,0.460437 -0.89065,0.460437 -0.58368,0 -0.89296,-0.460437 -0.30696,-0.462762 -0.30696,-1.339453 0,-0.879016 0.30696,-1.339453 0.30928,-0.462762 0.89296,-0.462762 z"
         style="font-style:normal;font-weight:normal;font-size:medium;line-height:125%;font-family:Sans;letter-spacing:0px;word-spacing:0px;fill:url(#linearGradient1037);fill-opacity:1;stroke:none;stroke-width:0.26458332px;stroke-linecap:butt;stroke-linejoin:miter;stroke-opacity:1"
         id="path1806" />
      <path
         inkscape:connector-curvature="0"
         d="m 143.08767,66.795151 h 0.7674 v -2.648676 l -0.83484,0.167432 v -0.427881 l 0.83018,-0.167432 h 0.46974 v 3.076557 h 0.7674 v 0.395324 h -1.99988 z"
         style="font-style:normal;font-weight:normal;font-size:medium;line-height:125%;font-family:Sans;letter-spacing:0px;word-spacing:0px;fill:url(#linearGradient1037);fill-opacity:1;stroke:none;stroke-width:0.26458332px;stroke-linecap:butt;stroke-linejoin:miter;stroke-opacity:1"
         id="path1800" />
      <path
         inkscape:connector-curvature="0"
         d="m 144.01087,58.73621 q -0.36277,0 -0.54648,0.358118 -0.18138,0.355792 -0.18138,1.072027 0,0.71391 0.18138,1.072028 0.18371,0.355792 0.54648,0.355792 0.36509,0 0.54648,-0.355792 0.18371,-0.358118 0.18371,-1.072028 0,-0.716235 -0.18371,-1.072027 -0.18139,-0.358118 -0.54648,-0.358118 z m 0,-0.37207 q 0.58369,0 0.89064,0.462762 0.30929,0.460437 0.30929,1.339453 0,0.876691 -0.30929,1.339453 -0.30695,0.460437 -0.89064,0.460437 -0.58368,0 -0.89297,-0.460437 -0.30696,-0.462762 -0.30696,-1.339453 0,-0.879016 0.30696,-1.339453 0.30929,-0.462762 0.89297,-0.462762 z"
         style="font-style:normal;font-weight:normal;font-size:medium;line-height:125%;font-family:Sans;letter-spacing:0px;word-spacing:0px;fill:url(#linearGradient1037);fill-opacity:1;stroke:none;stroke-width:0.26458332px;stroke-linecap:butt;stroke-linejoin:miter;stroke-opacity:1"
         id="path1797" />
      <path
         inkscape:connector-curvature="0"
         d="m 144.01087,90.486206 q -0.36277,0 -0.54648,0.358118 -0.18138,0.355792 -0.18138,1.072027 0,0.71391 0.18138,1.072028 0.18371,0.355792 0.54648,0.355792 0.36509,0 0.54648,-0.355792 0.18371,-0.358118 0.18371,-1.072028 0,-0.716235 -0.18371,-1.072027 -0.18139,-0.358118 -0.54648,-0.358118 z m 0,-0.37207 q 0.58369,0 0.89064,0.462762 0.30929,0.460437 0.30929,1.339453 0,0.876691 -0.30929,1.339453 -0.30695,0.460437 -0.89064,0.460437 -0.58368,0 -0.89297,-0.460437 -0.30696,-0.462762 -0.30696,-1.339453 0,-0.879016 0.30696,-1.339453 0.30929,-0.462762 0.89297,-0.462762 z"
         style="font-style:normal;font-weight:normal;font-size:medium;line-height:125%;font-family:Sans;letter-spacing:0px;word-spacing:0px;fill:url(#linearGradient1037);fill-opacity:1;stroke:none;stroke-width:0.26458332px;stroke-linecap:butt;stroke-linejoin:miter;stroke-opacity:1"
         id="path1794" />
      <path
         inkscape:connector-curvature="0"
         d="m 145.73351,70.763901 h 0.7674 v -2.648676 l -0.83483,0.167432 v -0.427881 l 0.83018,-0.167432 h 0.46974 v 3.076557 h 0.76739 v 0.395324 h -1.99988 z"
         style="font-style:normal;font-weight:normal;font-size:medium;line-height:125%;font-family:Sans;letter-spacing:0px;word-spacing:0px;fill:url(#linearGradient1037);fill-opacity:1;stroke:none;stroke-width:0.26458332px;stroke-linecap:butt;stroke-linejoin:miter;stroke-opacity:1"
         id="path1791" />
      <path
         inkscape:connector-curvature="0"
         d="m 146.65671,61.38205 q -0.36276,0 -0.54647,0.358117 -0.18139,0.355793 -0.18139,1.072028 0,0.71391 0.18139,1.072027 0.18371,0.355793 0.54647,0.355793 0.3651,0 0.54648,-0.355793 0.18371,-0.358117 0.18371,-1.072027 0,-0.716235 -0.18371,-1.072028 -0.18138,-0.358117 -0.54648,-0.358117 z m 0,-0.372071 q 0.58369,0 0.89065,0.462763 0.30928,0.460437 0.30928,1.339453 0,0.876691 -0.30928,1.339453 -0.30696,0.460437 -0.89065,0.460437 -0.58368,0 -0.89296,-0.460437 -0.30696,-0.462762 -0.30696,-1.339453 0,-0.879016 0.30696,-1.339453 0.30928,-0.462763 0.89296,-0.462763 z"
         style="font-style:normal;font-weight:normal;font-size:medium;line-height:125%;font-family:Sans;letter-spacing:0px;word-spacing:0px;fill:url(#linearGradient1037);fill-opacity:1;stroke:none;stroke-width:0.26458332px;stroke-linecap:butt;stroke-linejoin:miter;stroke-opacity:1"
         id="path1788" />
      <path
         inkscape:connector-curvature="0"
         d="m 145.92249,76.055565 h 0.7674 v -2.648676 l -0.83483,0.167432 V 73.14644 l 0.83018,-0.167431 h 0.46974 v 3.076556 h 0.76739 v 0.395325 h -1.99988 z"
         style="font-style:normal;font-weight:normal;font-size:medium;line-height:125%;font-family:Sans;letter-spacing:0px;word-spacing:0px;fill:url(#linearGradient1037);fill-opacity:1;stroke:none;stroke-width:0.26458332px;stroke-linecap:butt;stroke-linejoin:miter;stroke-opacity:1"
         id="path1785" />
      <path
         inkscape:connector-curvature="0"
         d="m 147.97962,77.25705 q -0.36277,0 -0.54648,0.358117 -0.18138,0.355793 -0.18138,1.072028 0,0.71391 0.18138,1.072027 0.18371,0.355793 0.54648,0.355793 0.36509,0 0.54648,-0.355793 0.18371,-0.358117 0.18371,-1.072027 0,-0.716235 -0.18371,-1.072028 -0.18139,-0.358117 -0.54648,-0.358117 z m 0,-0.372071 q 0.58369,0 0.89064,0.462763 0.30929,0.460437 0.30929,1.339453 0,0.876691 -0.30929,1.339453 -0.30695,0.460437 -0.89064,0.460437 -0.58368,0 -0.89297,-0.460437 -0.30696,-0.462762 -0.30696,-1.339453 0,-0.879016 0.30696,-1.339453 0.30929,-0.462763 0.89297,-0.462763 z"
         style="font-style:normal;font-weight:normal;font-size:medium;line-height:125%;font-family:Sans;letter-spacing:0px;word-spacing:0px;fill:url(#linearGradient1037);fill-opacity:1;stroke:none;stroke-width:0.26458332px;stroke-linecap:butt;stroke-linejoin:miter;stroke-opacity:1"
         id="path1782" />
      <path
         inkscape:connector-curvature="0"
         d="m 146.86744,90.513153 h 0.7674 V 87.864478 L 146.8,88.031909 v -0.427881 l 0.83018,-0.167431 h 0.46974 v 3.076556 h 0.7674 v 0.395325 h -1.99988 z"
         style="font-style:normal;font-weight:normal;font-size:medium;line-height:125%;font-family:Sans;letter-spacing:0px;word-spacing:0px;fill:url(#linearGradient1037);fill-opacity:1;stroke:none;stroke-width:0.26458332px;stroke-linecap:butt;stroke-linejoin:miter;stroke-opacity:1"
         id="path1779" />
      <text
         id="text1430"
         y="40.354164"
         x="92.604164"
         style="font-style:normal;font-weight:normal;font-size:4.76249981px;line-height:125%;font-family:Sans;letter-spacing:0px;word-spacing:0px;fill:url(#linearGradient1037);fill-opacity:1;stroke:none;stroke-width:0.26458332px;stroke-linecap:butt;stroke-linejoin:miter;stroke-opacity:1"
         xml:space="preserve"><tspan
           style="stroke-width:0.26458332px;fill-opacity:1;fill:url(#linearGradient1037)"
           y="44.56786"
           x="92.604164"
           id="tspan1428"
           sodipodi:role="line" /></text>
      <g
         id="g90"
         style="fill-opacity:1;fill:url(#linearGradient1037)" />
      <path
         inkscape:connector-curvature="0"
         d="m 139.04994,90.019641 h 0.7674 v -2.648676 l -0.83483,0.167432 v -0.427881 l 0.83018,-0.167431 h 0.46974 v 3.076556 h 0.76739 v 0.395325 h -1.99988 z"
         style="font-style:normal;font-weight:normal;font-size:medium;line-height:125%;font-family:Sans;letter-spacing:0px;word-spacing:0px;fill:url(#linearGradient1037);fill-opacity:1;stroke:none;stroke-width:0.26458332px;stroke-linecap:butt;stroke-linejoin:miter;stroke-opacity:1"
         id="path1785-5" />
    </g>
  </g>
</svg>
