<?xml version="1.0" encoding="UTF-8" standalone="no"?>
<!-- Created with Inkscape (http://www.inkscape.org/) -->

<svg
   xmlns:dc="http://purl.org/dc/elements/1.1/"
   xmlns:cc="http://creativecommons.org/ns#"
   xmlns:rdf="http://www.w3.org/1999/02/22-rdf-syntax-ns#"
   xmlns:svg="http://www.w3.org/2000/svg"
   xmlns="http://www.w3.org/2000/svg"
   xmlns:xlink="http://www.w3.org/1999/xlink"
   xmlns:sodipodi="http://sodipodi.sourceforge.net/DTD/sodipodi-0.dtd"
   xmlns:inkscape="http://www.inkscape.org/namespaces/inkscape"
   width="68.08783mm"
   height="36.297009mm"
   viewBox="0 0 68.08783 36.297009"
   version="1.1"
   id="svg8"
   sodipodi:docname="ADlogo.svg"
   inkscape:version="0.92.3 (2405546, 2018-03-11)">
  <defs
     id="defs2">
    <linearGradient
       inkscape:collect="always"
       id="linearGradient997">
      <stop
         style="stop-color:#d5a500;stop-opacity:0.98000002"
         offset="0"
         id="stop993" />
      <stop
         style="stop-color:#d5a500;stop-opacity:0.995"
         offset="1"
         id="stop995" />
    </linearGradient>
    <marker
       inkscape:isstock="true"
       style="overflow:visible"
       id="marker3668"
       refX="0"
       refY="0"
       orient="auto"
       inkscape:stockid="TriangleOutL">
      <path
         transform="scale(0.8)"
         style="fill:#000000;fill-opacity:1;fill-rule:evenodd;stroke:#000000;stroke-width:1.00000003pt;stroke-opacity:1"
         d="M 5.77,0 -2.88,5 V -5 Z"
         id="path3666"
         inkscape:connector-curvature="0" />
    </marker>
    <marker
       inkscape:stockid="Arrow2Mend"
       orient="auto"
       refY="0"
       refX="0"
       id="marker3474"
       style="overflow:visible"
       inkscape:isstock="true">
      <path
         id="path3472"
         style="fill:#000000;fill-opacity:1;fill-rule:evenodd;stroke:#000000;stroke-width:0.625;stroke-linejoin:round;stroke-opacity:1"
         d="M 8.7185878,4.0337352 -2.2072895,0.01601326 8.7185884,-4.0017078 c -1.7454984,2.3720609 -1.7354408,5.6174519 -6e-7,8.035443 z"
         transform="scale(-0.6)"
         inkscape:connector-curvature="0" />
    </marker>
    <marker
       inkscape:stockid="Arrow2Mend"
       orient="auto"
       refY="0"
       refX="0"
       id="marker3428"
       style="overflow:visible"
       inkscape:isstock="true">
      <path
         id="path3426"
         style="fill:#000000;fill-opacity:1;fill-rule:evenodd;stroke:#000000;stroke-width:0.625;stroke-linejoin:round;stroke-opacity:1"
         d="M 8.7185878,4.0337352 -2.2072895,0.01601326 8.7185884,-4.0017078 c -1.7454984,2.3720609 -1.7354408,5.6174519 -6e-7,8.035443 z"
         transform="scale(-0.6)"
         inkscape:connector-curvature="0" />
    </marker>
    <marker
       inkscape:stockid="Arrow2Mend"
       orient="auto"
       refY="0"
       refX="0"
       id="Arrow2Mend"
       style="overflow:visible"
       inkscape:isstock="true">
      <path
         id="path865"
         style="fill:#000000;fill-opacity:1;fill-rule:evenodd;stroke:#000000;stroke-width:0.625;stroke-linejoin:round;stroke-opacity:1"
         d="M 8.7185878,4.0337352 -2.2072895,0.01601326 8.7185884,-4.0017078 c -1.7454984,2.3720609 -1.7354408,5.6174519 -6e-7,8.035443 z"
         transform="scale(-0.6)"
         inkscape:connector-curvature="0" />
    </marker>
    <marker
       inkscape:isstock="true"
       style="overflow:visible"
       id="marker1128"
       refX="0"
       refY="0"
       orient="auto"
       inkscape:stockid="Arrow1Lend">
      <path
         transform="matrix(-0.8,0,0,-0.8,-10,0)"
         style="fill:#000000;fill-opacity:1;fill-rule:evenodd;stroke:#000000;stroke-width:1.00000003pt;stroke-opacity:1"
         d="M 0,0 5,-5 -12.5,0 5,5 Z"
         id="path1126"
         inkscape:connector-curvature="0" />
    </marker>
    <linearGradient
       inkscape:collect="always"
       xlink:href="#linearGradient997"
       id="linearGradient3819"
       gradientUnits="userSpaceOnUse"
       x1="108.76265"
       y1="76.072914"
       x2="130.2128"
       y2="76.734375"
       gradientTransform="scale(0.26458333)" />
    <linearGradient
       inkscape:collect="always"
       xlink:href="#linearGradient997"
       id="linearGradient3823"
       gradientUnits="userSpaceOnUse"
       x1="108.76265"
       y1="76.072914"
       x2="130.2128"
       y2="76.734375"
       gradientTransform="scale(0.26458333)" />
    <linearGradient
       inkscape:collect="always"
       xlink:href="#linearGradient997"
       id="linearGradient3827"
       gradientUnits="userSpaceOnUse"
       x1="108.76265"
       y1="76.072914"
       x2="130.2128"
       y2="76.734375" />
    <linearGradient
       inkscape:collect="always"
       xlink:href="#linearGradient997"
       id="linearGradient3831"
       gradientUnits="userSpaceOnUse"
       x1="108.76265"
       y1="76.072914"
       x2="130.2128"
       y2="76.734375"
       gradientTransform="scale(0.26458333)" />
    <linearGradient
       inkscape:collect="always"
       xlink:href="#linearGradient997"
       id="linearGradient3837"
       gradientUnits="userSpaceOnUse"
       x1="108.76265"
       y1="76.072914"
       x2="130.2128"
       y2="76.734375" />
    <linearGradient
       inkscape:collect="always"
       xlink:href="#linearGradient997"
       id="linearGradient3839"
       gradientUnits="userSpaceOnUse"
       x1="108.76265"
       y1="76.072914"
       x2="130.2128"
       y2="76.734375" />
    <linearGradient
       inkscape:collect="always"
       xlink:href="#linearGradient997"
       id="linearGradient3841"
       gradientUnits="userSpaceOnUse"
       x1="108.76265"
       y1="76.072914"
       x2="130.2128"
       y2="76.734375" />
    <linearGradient
       inkscape:collect="always"
       xlink:href="#linearGradient997"
       id="linearGradient3843"
       gradientUnits="userSpaceOnUse"
       x1="108.76265"
       y1="76.072914"
       x2="130.2128"
       y2="76.734375" />
    <linearGradient
       inkscape:collect="always"
       xlink:href="#linearGradient997"
       id="linearGradient3845"
       gradientUnits="userSpaceOnUse"
       x1="108.76265"
       y1="76.072914"
       x2="130.2128"
       y2="76.734375" />
    <linearGradient
       inkscape:collect="always"
       xlink:href="#linearGradient997"
       id="linearGradient3849"
       gradientUnits="userSpaceOnUse"
       x1="108.76265"
       y1="76.072914"
       x2="130.2128"
       y2="76.734375" />
    <linearGradient
       inkscape:collect="always"
       xlink:href="#linearGradient997"
       id="linearGradient3853"
       gradientUnits="userSpaceOnUse"
       x1="108.76265"
       y1="76.072914"
       x2="130.2128"
       y2="76.734375" />
    <linearGradient
       inkscape:collect="always"
       xlink:href="#linearGradient997"
       id="linearGradient3859"
       gradientUnits="userSpaceOnUse"
       x1="108.76265"
       y1="76.072914"
       x2="130.2128"
       y2="76.734375" />
    <linearGradient
       inkscape:collect="always"
       xlink:href="#linearGradient997"
       id="linearGradient3863"
       gradientUnits="userSpaceOnUse"
       x1="108.76265"
       y1="76.072914"
       x2="130.2128"
       y2="76.734375" />
    <linearGradient
       inkscape:collect="always"
       xlink:href="#linearGradient997"
       id="linearGradient3867"
       gradientUnits="userSpaceOnUse"
       x1="108.76265"
       y1="76.072914"
       x2="130.2128"
       y2="76.734375" />
    <linearGradient
       inkscape:collect="always"
       xlink:href="#linearGradient997"
       id="linearGradient3873"
       gradientUnits="userSpaceOnUse"
       x1="108.76265"
       y1="76.072914"
       x2="130.2128"
       y2="76.734375" />
    <linearGradient
       inkscape:collect="always"
       xlink:href="#linearGradient997"
       id="linearGradient4027"
       gradientUnits="userSpaceOnUse"
       x1="108.76265"
       y1="76.072914"
       x2="130.2128"
       y2="76.734375"
       gradientTransform="scale(3.7795276)" />
    <linearGradient
       inkscape:collect="always"
       xlink:href="#linearGradient997"
       id="linearGradient4032"
       gradientUnits="userSpaceOnUse"
       x1="108.76265"
       y1="76.072914"
       x2="130.2128"
       y2="76.734375"
       gradientTransform="scale(3.7795276)" />
    <linearGradient
       inkscape:collect="always"
       xlink:href="#linearGradient997"
       id="linearGradient4035"
       gradientUnits="userSpaceOnUse"
       x1="108.76265"
       y1="76.072914"
       x2="130.2128"
       y2="76.734375"
       gradientTransform="scale(3.7795276)" />
    <linearGradient
       inkscape:collect="always"
       xlink:href="#linearGradient997"
       id="linearGradient4038"
       gradientUnits="userSpaceOnUse"
       x1="108.76265"
       y1="76.072914"
       x2="130.2128"
       y2="76.734375"
       gradientTransform="scale(3.7795276)" />
    <linearGradient
       inkscape:collect="always"
       xlink:href="#linearGradient997"
       id="linearGradient4041"
       gradientUnits="userSpaceOnUse"
       gradientTransform="scale(0.26458333)"
       x1="108.76265"
       y1="76.072914"
       x2="130.2128"
       y2="76.734375" />
    <linearGradient
       inkscape:collect="always"
       xlink:href="#linearGradient997"
       id="linearGradient4043"
       gradientUnits="userSpaceOnUse"
       gradientTransform="scale(0.26458333)"
       x1="108.76265"
       y1="76.072914"
       x2="130.2128"
       y2="76.734375" />
    <linearGradient
       inkscape:collect="always"
       xlink:href="#linearGradient997"
       id="linearGradient4045"
       gradientUnits="userSpaceOnUse"
       gradientTransform="scale(0.26458333)"
       x1="108.76265"
       y1="76.072914"
       x2="130.2128"
       y2="76.734375" />
    <linearGradient
       inkscape:collect="always"
       xlink:href="#linearGradient997"
       id="linearGradient4047"
       gradientUnits="userSpaceOnUse"
       gradientTransform="scale(0.26458333)"
       x1="108.76265"
       y1="76.072914"
       x2="130.2128"
       y2="76.734375" />
    <linearGradient
       inkscape:collect="always"
       xlink:href="#linearGradient997"
       id="linearGradient4049"
       gradientUnits="userSpaceOnUse"
       gradientTransform="scale(0.26458333)"
       x1="108.76265"
       y1="76.072914"
       x2="130.2128"
       y2="76.734375" />
    <linearGradient
       inkscape:collect="always"
       xlink:href="#linearGradient997"
       id="linearGradient4051"
       gradientUnits="userSpaceOnUse"
       gradientTransform="scale(0.26458333)"
       x1="108.76265"
       y1="76.072914"
       x2="130.2128"
       y2="76.734375" />
    <linearGradient
       inkscape:collect="always"
       xlink:href="#linearGradient997"
       id="linearGradient4053"
       gradientUnits="userSpaceOnUse"
       gradientTransform="scale(0.26458333)"
       x1="108.76265"
       y1="76.072914"
       x2="130.2128"
       y2="76.734375" />
    <linearGradient
       inkscape:collect="always"
       xlink:href="#linearGradient997"
       id="linearGradient4055"
       gradientUnits="userSpaceOnUse"
       gradientTransform="scale(0.26458333)"
       x1="108.76265"
       y1="76.072914"
       x2="130.2128"
       y2="76.734375" />
    <linearGradient
       inkscape:collect="always"
       xlink:href="#linearGradient997"
       id="linearGradient4057"
       gradientUnits="userSpaceOnUse"
       gradientTransform="scale(0.26458333)"
       x1="108.76265"
       y1="76.072914"
       x2="130.2128"
       y2="76.734375" />
    <linearGradient
       inkscape:collect="always"
       xlink:href="#linearGradient997"
       id="linearGradient4059"
       gradientUnits="userSpaceOnUse"
       gradientTransform="scale(0.26458333)"
       x1="108.76265"
       y1="76.072914"
       x2="130.2128"
       y2="76.734375" />
    <linearGradient
       inkscape:collect="always"
       xlink:href="#linearGradient997"
       id="linearGradient4061"
       gradientUnits="userSpaceOnUse"
       gradientTransform="scale(0.26458333)"
       x1="108.76265"
       y1="76.072914"
       x2="130.2128"
       y2="76.734375" />
    <linearGradient
       inkscape:collect="always"
       xlink:href="#linearGradient997"
       id="linearGradient4063"
       gradientUnits="userSpaceOnUse"
       gradientTransform="scale(0.26458333)"
       x1="108.76265"
       y1="76.072914"
       x2="130.2128"
       y2="76.734375" />
    <linearGradient
       inkscape:collect="always"
       xlink:href="#linearGradient997"
       id="linearGradient4065"
       gradientUnits="userSpaceOnUse"
       gradientTransform="scale(0.26458333)"
       x1="108.76265"
       y1="76.072914"
       x2="130.2128"
       y2="76.734375" />
    <linearGradient
       inkscape:collect="always"
       xlink:href="#linearGradient997"
       id="linearGradient4067"
       gradientUnits="userSpaceOnUse"
       gradientTransform="scale(0.26458333)"
       x1="108.76265"
       y1="76.072914"
       x2="130.2128"
       y2="76.734375" />
    <linearGradient
       inkscape:collect="always"
       xlink:href="#linearGradient997"
       id="linearGradient4069"
       gradientUnits="userSpaceOnUse"
       gradientTransform="scale(0.26458333)"
       x1="108.76265"
       y1="76.072914"
       x2="130.2128"
       y2="76.734375" />
    <linearGradient
       inkscape:collect="always"
       xlink:href="#linearGradient997"
       id="linearGradient4071"
       gradientUnits="userSpaceOnUse"
       gradientTransform="scale(0.26458333)"
       x1="108.76265"
       y1="76.072914"
       x2="130.2128"
       y2="76.734375" />
    <linearGradient
       inkscape:collect="always"
       xlink:href="#linearGradient997"
       id="linearGradient4073"
       gradientUnits="userSpaceOnUse"
       gradientTransform="scale(0.26458333)"
       x1="108.76265"
       y1="76.072914"
       x2="130.2128"
       y2="76.734375" />
    <linearGradient
       inkscape:collect="always"
       xlink:href="#linearGradient997"
       id="linearGradient4075"
       gradientUnits="userSpaceOnUse"
       gradientTransform="scale(0.26458333)"
       x1="108.76265"
       y1="76.072914"
       x2="130.2128"
       y2="76.734375" />
    <linearGradient
       inkscape:collect="always"
       xlink:href="#linearGradient997"
       id="linearGradient4077"
       gradientUnits="userSpaceOnUse"
       gradientTransform="scale(0.26458333)"
       x1="108.76265"
       y1="76.072914"
       x2="130.2128"
       y2="76.734375" />
    <linearGradient
       inkscape:collect="always"
       xlink:href="#linearGradient997"
       id="linearGradient4079"
       gradientUnits="userSpaceOnUse"
       gradientTransform="scale(0.26458333)"
       x1="108.76265"
       y1="76.072914"
       x2="130.2128"
       y2="76.734375" />
    <linearGradient
       inkscape:collect="always"
       xlink:href="#linearGradient997"
       id="linearGradient4081"
       gradientUnits="userSpaceOnUse"
       gradientTransform="scale(0.26458333)"
       x1="108.76265"
       y1="76.072914"
       x2="130.2128"
       y2="76.734375" />
    <linearGradient
       inkscape:collect="always"
       xlink:href="#linearGradient997"
       id="linearGradient4083"
       gradientUnits="userSpaceOnUse"
       gradientTransform="scale(0.26458333)"
       x1="108.76265"
       y1="76.072914"
       x2="130.2128"
       y2="76.734375" />
    <linearGradient
       inkscape:collect="always"
       xlink:href="#linearGradient997"
       id="linearGradient4085"
       gradientUnits="userSpaceOnUse"
       gradientTransform="scale(0.26458333)"
       x1="108.76265"
       y1="76.072914"
       x2="130.2128"
       y2="76.734375" />
  </defs>
  <sodipodi:namedview
     id="base"
     pagecolor="#1d1d1d"
     bordercolor="#666666"
     borderopacity="1.0"
     inkscape:pageopacity="0"
     inkscape:pageshadow="2"
     inkscape:zoom="3.959798"
     inkscape:cx="144.90935"
     inkscape:cy="60.124429"
     inkscape:document-units="mm"
     inkscape:current-layer="layer1"
     showgrid="false"
     inkscape:window-width="1920"
     inkscape:window-height="1001"
     inkscape:window-x="-9"
     inkscape:window-y="-9"
     inkscape:window-maximized="1"
     fit-margin-top="0"
     fit-margin-left="0"
     fit-margin-right="0"
     fit-margin-bottom="0">
    <inkscape:grid
       type="xygrid"
       id="grid10"
       originx="-81.091695"
       originy="-202.33859" />
  </sodipodi:namedview>
  <metadata
     id="metadata5">
    <rdf:RDF>
      <cc:Work
         rdf:about="">
        <dc:format>image/svg+xml</dc:format>
        <dc:type
           rdf:resource="http://purl.org/dc/dcmitype/StillImage" />
        <dc:title></dc:title>
      </cc:Work>
    </rdf:RDF>
  </metadata>
  <g
     inkscape:label="Layer 1"
     inkscape:groupmode="layer"
     id="layer1"
     transform="translate(-81.09169,-58.364393)">
    <path
       style="color:#000000;font-style:normal;font-variant:normal;font-weight:normal;font-stretch:normal;font-size:medium;line-height:normal;font-family:sans-serif;font-variant-ligatures:normal;font-variant-position:normal;font-variant-caps:normal;font-variant-numeric:normal;font-variant-alternates:normal;font-feature-settings:normal;text-indent:0;text-align:start;text-decoration:none;text-decoration-line:none;text-decoration-style:solid;text-decoration-color:#000000;letter-spacing:normal;word-spacing:normal;text-transform:none;writing-mode:lr-tb;direction:ltr;text-orientation:mixed;dominant-baseline:auto;baseline-shift:baseline;text-anchor:start;white-space:normal;shape-padding:0;clip-rule:nonzero;display:inline;overflow:visible;visibility:visible;opacity:1;isolation:auto;mix-blend-mode:normal;color-interpolation:sRGB;color-interpolation-filters:linearRGB;solid-color:#000000;solid-opacity:1;vector-effect:none;fill:url(#linearGradient3819);fill-opacity:1;fill-rule:evenodd;stroke:none;stroke-width:0.26499999;stroke-linecap:butt;stroke-linejoin:miter;stroke-miterlimit:4;stroke-dasharray:none;stroke-dashoffset:0;stroke-opacity:1;color-rendering:auto;image-rendering:auto;shape-rendering:auto;text-rendering:auto;enable-background:accumulate"
       d="m 82.953592,61.189028 -1.059884,1.833999 h 0.926558 v 31.139182 h 0.265617 V 63.023027 h 0.927593 z"
       id="path12"
       inkscape:connector-curvature="0" />
    <path
       style="fill:url(#linearGradient4041);fill-opacity:1;fill-rule:evenodd;stroke:none;stroke-width:0.20416419px;stroke-linecap:butt;stroke-linejoin:miter;stroke-opacity:1"
       d="m 92.972619,61.899064 c -4.455964,0 -9.452136,15.874999 -9.452136,15.874999 h 18.445387 c 0.10417,-0.159099 0.20424,-0.319616 0.30747,-0.479041 -2.44855,-7.773826 -4.934855,-15.395958 -9.300721,-15.395958 z"
       id="path3923"
       inkscape:connector-curvature="0" />
    <path
       style="fill:url(#linearGradient4043);fill-opacity:1;fill-rule:evenodd;stroke:none;stroke-width:0.20416419px;stroke-linecap:butt;stroke-linejoin:miter;stroke-opacity:1"
       d="m 102.27334,77.295022 c 0.0505,0.16043 0.10142,0.318548 0.15193,0.479041 h 1.65726 c 1.8253,-2.933123 3.74834,-6.36828 5.19349,-9.292973 l 0.38137,-0.728636 v 2.116667 c 0.0871,2.904479 0.15344,5.354473 0.27337,7.904942 h 3.57445 c -0.23662,-3.280526 -0.34364,-6.450758 -0.34364,-9.674343 v -4.891694 c 0.0347,-0.381629 -0.13875,-0.555519 -0.52038,-0.555519 -1.1449,0 -2.34751,1.121992 -2.8782,1.648827 -0.55525,0.568509 -0.82621,1.145744 -1.21564,1.924596 -1.83299,3.765055 -3.93576,7.458146 -6.27404,11.069092 z"
       id="path3921"
       inkscape:connector-curvature="0"
       sodipodi:nodetypes="ccccccccscscccc" />
    <path
       style="fill:url(#linearGradient4045);fill-opacity:1;fill-rule:evenodd;stroke:none;stroke-width:0.20416419px;stroke-linecap:butt;stroke-linejoin:miter;stroke-opacity:1"
       d="m 113.50521,77.774063 c 0.0333,0.461979 0.069,0.92587 0.10749,1.39268 0.13877,2.185712 0.312,3.365307 0.62425,4.822444 0.13877,0.555104 0.41636,1.734865 0.48576,1.943034 0.17347,0.416329 0.41626,0.485994 0.79789,0.624768 l 0.38188,-0.208256 c 0.72857,-0.34694 1.28331,-0.555003 1.69964,-0.555003 0.28059,0 0.44796,0.07561 0.51728,0.253214 1.88883,-4.077451 3.21118,-8.272881 3.21118,-8.272881 z"
       id="path3919"
       inkscape:connector-curvature="0" />
    <path
       style="fill:url(#linearGradient4047);fill-opacity:1;fill-rule:evenodd;stroke:none;stroke-width:0.20416419px;stroke-linecap:butt;stroke-linejoin:miter;stroke-opacity:1"
       d="m 118.1194,86.046944 c -0.16485,0.355875 -0.3329,0.710745 -0.50591,1.06195 0.14175,-0.128114 0.26109,-0.26021 0.37052,-0.413411 0.10408,-0.208161 0.13895,-0.277731 0.17363,-0.416513 0,-0.09186 -0.0133,-0.168066 -0.0382,-0.232026 z"
       id="path3917"
       inkscape:connector-curvature="0" />
    <path
       style="fill:url(#linearGradient4049);fill-opacity:1;fill-rule:evenodd;stroke:none;stroke-width:0.20416419px;stroke-linecap:butt;stroke-linejoin:miter;stroke-opacity:1"
       d="m 117.61349,87.108894 c -0.30764,0.278059 -0.73185,0.535715 -1.46813,0.939477 -0.79796,0.41633 -1.17982,0.555242 -1.66553,0.694016 -0.41632,0.13875 -0.93663,0.208256 -1.31826,0.208256 -0.72857,0 -1.38799,-0.38149 -1.66554,-0.832509 -0.13876,-0.208161 -0.20775,-0.451295 -0.45061,-1.388028 -0.31224,-1.248979 -0.55524,-2.46308 -0.69402,-3.642672 -0.0347,-0.346943 -0.0697,-0.659228 -0.10438,-0.728639 v -0.103867 h -4.54495 l -1.84019,-0.01447 c 2.08106,6.198354 4.40624,11.408606 8.01604,11.408606 1.9652,0 4.03506,-3.088225 5.73557,-6.54017 z"
       id="path3915"
       inkscape:connector-curvature="0" />
    <path
       style="fill:url(#linearGradient4051);fill-opacity:1;fill-rule:evenodd;stroke:none;stroke-width:0.20416419px;stroke-linecap:butt;stroke-linejoin:miter;stroke-opacity:1"
       d="m 103.86188,82.240458 c -0.25037,-0.745707 -0.49593,-1.509872 -0.74104,-2.276864 l -0.0899,0.03617 c -0.20816,0.06941 -0.38181,0.138493 -0.41651,0.138493 h -0.0346 l 0.0692,-0.138493 0.32401,-0.50178 c -0.18257,-0.574609 -0.36595,-1.146254 -0.54777,-1.723925 h -0.4594 c -0.8411,1.284616 -1.71208,2.558757 -2.612763,3.821473 -1.838772,2.602039 -3.018134,3.885808 -3.920173,4.267438 -0.138776,0.06941 -0.277667,0.06925 -0.451135,0.06925 -0.902042,0 -2.116455,-0.694026 -2.220537,-1.700155 -0.06939,-0.381632 -0.138372,-0.658873 -0.45062,-0.658873 -0.555098,0 -1.526521,1.457026 -1.526521,2.844787 0,1.908164 1.561136,3.226675 3.087669,3.226675 1.35306,0 2.948926,-1.4224 5.099946,-4.336684 0.451017,-0.555104 1.144974,-1.561447 1.734774,-2.428793 l 0.45114,-0.659392 z"
       id="path3913"
       inkscape:connector-curvature="0" />
    <path
       style="fill:url(#linearGradient3823);fill-opacity:1;fill-rule:evenodd;stroke:none;stroke-width:0.20416419px;stroke-linecap:butt;stroke-linejoin:miter;stroke-opacity:1"
       d="m 102.97304,79.497988 c 0.0493,0.155181 0.0984,0.310933 0.1478,0.465606 l 0.25683,-0.102836 h 6.69623 l -0.0698,-0.589629 c -0.0282,-0.508416 -0.0501,-1.001011 -0.0734,-1.497066 h -5.84823 c -0.0152,0.02434 -0.0303,0.05013 -0.0455,0.07442 z"
       id="path14"
       inkscape:connector-curvature="0" />
    <path
       style="font-style:normal;font-weight:normal;font-size:medium;line-height:125%;font-family:Sans;letter-spacing:0px;word-spacing:0px;fill:url(#linearGradient4027);fill-opacity:1;stroke:none;stroke-width:0.99999994px;stroke-linecap:butt;stroke-linejoin:miter;stroke-opacity:1"
       d="m 472.32812,228.44531 c -1.47071,0 -2.59571,0.58399 -3.375,1.75 -0.77344,1.16016 -1.16015,2.84766 -1.16015,5.0625 0,2.20899 0.38671,3.89649 1.16015,5.0625 0.77929,1.16016 1.90429,1.74024 3.375,1.74024 1.47069,0 2.59375,-0.58008 3.36719,-1.74024 0.77929,-1.16601 1.16797,-2.85351 1.16797,-5.0625 0,-2.21484 -0.38868,-3.90234 -1.16797,-5.0625 -0.77344,-1.16601 -1.8965,-1.75 -3.36719,-1.75 z m 0,1.40625 c 0.91992,0 1.60937,0.45118 2.06641,1.35352 0.46289,0.89648 0.69336,2.24805 0.69336,4.05273 0,1.79883 -0.23047,3.14844 -0.69336,4.05078 -0.45704,0.89649 -1.14649,1.34571 -2.06641,1.34571 -0.91406,0 -1.60156,-0.44922 -2.06445,-1.34571 -0.45704,-0.90234 -0.68554,-2.25195 -0.68555,-4.05078 10e-6,-1.80468 0.22851,-3.15625 0.68555,-4.05273 0.46289,-0.90234 1.15039,-1.35352 2.06445,-1.35352 z"
       transform="scale(0.26458333)"
       id="path3927"
       inkscape:connector-curvature="0" />
    <path
       style="font-style:normal;font-weight:normal;font-size:medium;line-height:125%;font-family:Sans;letter-spacing:0px;word-spacing:0px;fill:url(#linearGradient3827);fill-opacity:1;stroke:none;stroke-width:0.26458332px;stroke-linecap:butt;stroke-linejoin:miter;stroke-opacity:1"
       d="m 127.21268,69.440987 h 0.76739 v -2.648676 l -0.83483,0.167432 v -0.427881 l 0.83018,-0.167432 h 0.46974 v 3.076557 h 0.7674 v 0.395324 h -1.99988 z"
       id="path1866"
       inkscape:connector-curvature="0" />
    <path
       style="font-style:normal;font-weight:normal;font-size:medium;line-height:125%;font-family:Sans;letter-spacing:0px;word-spacing:0px;fill:url(#linearGradient4038);fill-opacity:1;stroke:none;stroke-width:0.99999994px;stroke-linecap:butt;stroke-linejoin:miter;stroke-opacity:1"
       d="m 494.29297,280.58984 c -1.47069,0 -2.59571,0.58204 -3.375,1.74805 -0.77344,1.16016 -1.16016,2.84766 -1.16016,5.0625 0,2.20899 0.38672,3.89649 1.16016,5.0625 0.77929,1.16016 1.90431,1.74023 3.375,1.74023 1.47071,10e-6 2.59374,-0.58007 3.36719,-1.74023 0.77928,-1.16601 1.16796,-2.85351 1.16796,-5.0625 0,-2.21484 -0.38868,-3.90234 -1.16796,-5.0625 -0.77345,-1.16601 -1.89648,-1.74805 -3.36719,-1.74805 z m 0,1.40625 c 0.91994,0 1.60938,0.45118 2.06641,1.35352 0.46289,0.89649 0.69335,2.24609 0.69335,4.05078 0,1.79883 -0.23046,3.15039 -0.69335,4.05273 -0.45703,0.89649 -1.14647,1.34376 -2.06641,1.34376 -0.91404,0 -1.60156,-0.44727 -2.06445,-1.34376 -0.45705,-0.90234 -0.68555,-2.2539 -0.68555,-4.05273 0,-1.80469 0.2285,-3.15429 0.68555,-4.05078 0.46289,-0.90234 1.15041,-1.35352 2.06445,-1.35352 z m 20,8.59375 c -1.47069,0 -2.59569,0.58203 -3.375,1.74805 -0.77344,1.16016 -1.16016,2.84766 -1.16016,5.0625 0,2.20899 0.38672,3.89649 1.16016,5.0625 0.77931,1.16016 1.90431,1.74023 3.375,1.74023 1.47071,10e-6 2.59377,-0.58007 3.36719,-1.74023 0.77931,-1.16601 1.16796,-2.85351 1.16796,-5.0625 0,-2.21484 -0.38865,-3.90234 -1.16796,-5.0625 -0.77342,-1.16602 -1.89648,-1.74805 -3.36719,-1.74805 z m 0,1.40625 c 0.91991,0 1.60936,0.45118 2.06641,1.35352 0.46289,0.89649 0.69335,2.24609 0.69335,4.05078 0,1.79883 -0.23046,3.15039 -0.69335,4.05273 -0.45705,0.89649 -1.1465,1.34376 -2.06641,1.34376 -0.91407,-10e-6 -1.60156,-0.44727 -2.06445,-1.34376 -0.45702,-0.90234 -0.68555,-2.2539 -0.68555,-4.05273 0,-1.80469 0.22853,-3.15429 0.68555,-4.05078 0.46289,-0.90234 1.15038,-1.35352 2.06445,-1.35352 z m 30,48.5918 c -1.47069,0 -2.59569,0.58399 -3.375,1.75 -0.77344,1.16016 -1.16016,2.84766 -1.16016,5.0625 0,2.20899 0.38672,3.89649 1.16016,5.0625 0.77931,1.16016 1.90431,1.74023 3.375,1.74023 1.47071,10e-6 2.59377,-0.58007 3.36719,-1.74023 0.77931,-1.16601 1.16796,-2.85351 1.16796,-5.0625 0,-2.21484 -0.38865,-3.90234 -1.16796,-5.0625 -0.77342,-1.16601 -1.89648,-1.75 -3.36719,-1.75 z m 0,1.40625 c 0.91991,0 1.60936,0.45117 2.06641,1.35352 0.46289,0.89648 0.69335,2.24804 0.69335,4.05273 0,1.79883 -0.23046,3.14844 -0.69335,4.05078 -0.45705,0.89649 -1.1465,1.34571 -2.06641,1.34571 -0.91407,0 -1.60156,-0.44922 -2.06445,-1.34571 -0.45702,-0.90234 -0.68555,-2.25195 -0.68555,-4.05078 0,-1.80469 0.22853,-3.15625 0.68555,-4.05273 0.46289,-0.90235 1.15038,-1.35352 2.06445,-1.35352 z m -24.28516,2.16602 c -1.47069,0 -2.59571,0.58398 -3.375,1.75 -0.77344,1.16015 -1.16015,2.84765 -1.16015,5.0625 0,2.20898 0.38671,3.89648 1.16015,5.0625 0.77929,1.16015 1.90431,1.74023 3.375,1.74023 1.47072,0 2.59179,-0.58008 3.36524,-1.74023 0.77929,-1.16602 1.16992,-2.85352 1.16992,-5.0625 0,-2.21485 -0.39063,-3.90235 -1.16992,-5.0625 -0.77345,-1.16602 -1.89452,-1.75 -3.36524,-1.75 z m 0,1.40625 c 0.91994,0 1.60744,0.45117 2.06446,1.35351 0.46289,0.89649 0.69531,2.24805 0.69531,4.05274 0,1.79882 -0.23242,3.14843 -0.69531,4.05078 -0.45702,0.89648 -1.14452,1.3457 -2.06446,1.3457 -0.91404,0 -1.60351,-0.44922 -2.0664,-1.3457 -0.45705,-0.90235 -0.68555,-2.25196 -0.68555,-4.05078 0,-1.80469 0.2285,-3.15625 0.68555,-4.05274 0.46289,-0.90234 1.15236,-1.35351 2.0664,-1.35351 z"
       transform="scale(0.26458333)"
       id="path1863"
       inkscape:connector-curvature="0" />
    <path
       style="font-style:normal;font-weight:normal;font-size:medium;line-height:125%;font-family:Sans;letter-spacing:0px;word-spacing:0px;fill:url(#linearGradient4053);fill-opacity:1;stroke:none;stroke-width:0.26458332px;stroke-linecap:butt;stroke-linejoin:miter;stroke-opacity:1"
       d="m 133.42751,61.010228 c -0.38912,0 -0.68678,0.153995 -0.89297,0.462505 -0.20463,0.306959 -0.30695,0.753443 -0.30695,1.339453 0,0.584462 0.10232,1.030946 0.30695,1.339453 0.0169,0.02519 0.0356,0.04767 0.0538,0.0708 0.28305,0.0034 0.56256,0.0088 0.82785,0.01603 -0.23583,-0.0039 -0.41442,-0.120759 -0.53485,-0.353986 -0.12092,-0.238728 -0.18138,-0.596345 -0.18138,-1.072285 0,-0.477491 0.0605,-0.834573 0.18138,-1.071769 0.12248,-0.238744 0.30438,-0.358119 0.54622,-0.358119 0.2434,0 0.42581,0.119375 0.54674,0.358119 0.12246,0.237196 0.18345,0.594278 0.18345,1.071769 0,0.47594 -0.061,0.833557 -0.18345,1.072285 -0.11974,0.23486 -0.30022,0.352189 -0.54002,0.354502 0.27207,0.0075 0.54009,0.01656 0.7953,0.02894 0.0312,-0.03605 0.0611,-0.07455 0.0889,-0.116271 0.20618,-0.308507 0.30902,-0.754991 0.30902,-1.339453 0,-0.58601 -0.10284,-1.032494 -0.30902,-1.339453 -0.20465,-0.30851 -0.50179,-0.462505 -0.89091,-0.462505 z"
       id="path3969"
       inkscape:connector-curvature="0" />
    <path
       style="font-style:normal;font-weight:normal;font-size:medium;line-height:125%;font-family:Sans;letter-spacing:0px;word-spacing:0px;fill:url(#linearGradient4055);fill-opacity:1;stroke:none;stroke-width:0.26458332px;stroke-linecap:butt;stroke-linejoin:miter;stroke-opacity:1"
       d="m 134.22953,64.26791 c -0.19849,0.229187 -0.46578,0.344167 -0.80202,0.344165 -0.35719,0 -0.63617,-0.130993 -0.83922,-0.389639 -0.31933,-0.0038 -0.63142,-0.0088 -0.97565,-0.0088 -1.28367,0 -2.53261,0.03514 -2.81017,0.03514 -4.96122,0.312246 -9.57565,3.052739 -10.58178,6.24458 -0.0347,0.242858 -0.10387,0.381608 -0.10387,0.520382 0,0.277553 0.24262,0.416512 0.62425,0.416512 0.93674,-0.104084 2.11664,-0.763325 2.63705,-1.4919 0.0347,-0.104082 0.13887,-0.312277 0.20825,-0.485757 0.6592,-2.081628 2.53239,-2.636702 5.20382,-2.810166 0.20817,-0.03475 0.20796,-0.103841 0.10387,0.902272 -0.31246,3.261275 -0.89953,6.588363 -1.74304,9.857795 h 0.57826 v -0.928108 l 1.83347,1.0604 -1.83347,1.059884 v -0.926558 h -0.64958 c -0.64256,2.447753 -1.42668,4.861729 -2.34869,7.188708 l -0.2775,0.693497 -0.38189,0.139009 c -0.58979,0.173471 -1.14482,0.520565 -1.56115,0.936895 -0.24243,0.207796 -0.55391,0.588158 -0.555,0.865579 0.0767,-0.01492 0.15728,-0.02326 0.24288,-0.02326 0.37639,0 0.66593,0.145423 0.86971,0.434083 0.39023,0.0048 0.83981,0.0072 1.94045,0.0072 2.71356,-0.03432 3.0164,-0.03574 4.09949,-0.204121 -0.11484,-0.282972 -0.17208,-0.643242 -0.17208,-1.081072 0,-0.464796 0.0656,-0.840401 0.1943,-1.129646 -0.16064,0.0064 -0.3126,0.01701 -0.47904,0.02066 h -1.28364 l 0.48576,-1.179256 c 1.83877,-4.614281 3.12273,-9.194104 3.92069,-13.843082 0.20814,-1.318366 0.52038,-3.50406 0.52038,-3.816305 0,-0.06941 0.0349,-0.06925 0.45114,-0.06925 2.42858,0 4.51023,0.485402 6.07146,1.179256 0.66688,0.349319 1.27112,0.748374 1.79059,1.223182 h 0.42116 v 0.425815 c 0.93356,1.038209 1.50017,2.412606 1.50017,4.353221 v 0.520383 c 0,0.555104 -0.0349,0.901959 -0.17364,1.561145 -0.65918,3.400001 -2.87934,6.175933 -6.20995,7.910629 -1.62788,0.801412 -3.16747,1.311748 -5.08445,1.560626 0.18273,0.304363 0.27492,0.730951 0.27492,1.28261 0,0.254352 -0.0235,0.477456 -0.0625,0.679545 2.98762,-0.706861 5.84138,-2.024502 8.27494,-3.798734 0.0423,-0.357507 0.13305,-0.648639 0.27802,-0.866097 0.20619,-0.308507 0.50385,-0.462505 0.89297,-0.462505 0.14555,0 0.27817,0.02143 0.39791,0.0646 0.791,-0.704694 1.48821,-1.444826 2.09238,-2.215367 v -0.0047 l -0.83509,0.16743 v -0.427881 l 0.83044,-0.167431 h 0.33124 c 1.01594,-1.396047 1.72644,-2.887787 2.12183,-4.449339 -0.2209,-0.06772 -0.40157,-0.203184 -0.54001,-0.409279 -0.20464,-0.308507 -0.30696,-0.754991 -0.30696,-1.339453 0,-0.58601 0.10232,-1.032494 0.30696,-1.339453 0.20553,-0.307525 0.50205,-0.461523 0.88935,-0.462505 -0.13204,-1.882367 -0.79839,-3.302762 -1.85777,-4.402831 h -1.70739 v -0.395324 h 0.7674 V 66.3675 c -0.19617,-0.145745 -0.3985,-0.286512 -0.61134,-0.419094 -1.94752,-1.147173 -3.73976,-1.552909 -6.3686,-1.68052 z"
       id="path3967"
       inkscape:connector-curvature="0" />
    <path
       style="font-style:normal;font-weight:normal;font-size:medium;line-height:125%;font-family:Sans;letter-spacing:0px;word-spacing:0px;fill:url(#linearGradient4057);fill-opacity:1;stroke:none;stroke-width:0.26458332px;stroke-linecap:butt;stroke-linejoin:miter;stroke-opacity:1"
       d="m 141.20947,66.367524 c 0.16033,0.119121 0.31653,0.241448 0.46508,0.370004 V 63.71859 h -0.46973 l -0.83044,0.167431 v 0.427882 l 0.83509,-0.167431 z"
       id="path3965"
       inkscape:connector-curvature="0" />
    <path
       style="font-style:normal;font-weight:normal;font-size:medium;line-height:125%;font-family:Sans;letter-spacing:0px;word-spacing:0px;fill:url(#linearGradient4059);fill-opacity:1;stroke:none;stroke-width:0.26458332px;stroke-linecap:butt;stroke-linejoin:miter;stroke-opacity:1"
       d="m 141.67455,66.737528 v 0.05788 h 0.0651 c -0.0217,-0.01926 -0.0431,-0.03884 -0.0651,-0.05788 z"
       id="path3963"
       inkscape:connector-curvature="0" />
    <path
       style="font-style:normal;font-weight:normal;font-size:medium;line-height:125%;font-family:Sans;letter-spacing:0px;word-spacing:0px;fill:url(#linearGradient4061);fill-opacity:1;stroke:none;stroke-width:0.26458332px;stroke-linecap:butt;stroke-linejoin:miter;stroke-opacity:1"
       d="m 141.73965,66.795408 c 0.14292,0.1266 0.27866,0.259154 0.40979,0.395324 h 0.29249 v -0.395324 z"
       id="path3961"
       inkscape:connector-curvature="0" />
    <path
       style="font-style:normal;font-weight:normal;font-size:medium;line-height:125%;font-family:Sans;letter-spacing:0px;word-spacing:0px;fill:url(#linearGradient4063);fill-opacity:1;stroke:none;stroke-width:0.26458332px;stroke-linecap:butt;stroke-linejoin:miter;stroke-opacity:1"
       d="m 144.00721,71.593563 c 0.009,0.122777 0.0151,0.24738 0.0191,0.374139 0.23516,0.0053 0.41305,0.122717 0.53123,0.35605 0.12248,0.237194 0.18345,0.594278 0.18345,1.071769 0,0.47594 -0.061,0.833541 -0.18345,1.072285 -0.12092,0.237196 -0.30334,0.355536 -0.54673,0.355536 -0.0981,0 -0.18356,-0.02455 -0.262,-0.06356 -0.01,0.04723 -0.0173,0.09246 -0.0279,0.140044 -0.0189,0.08194 -0.0424,0.162872 -0.063,0.24443 0.10811,0.03314 0.22509,0.05116 0.35295,0.05116 0.38912,3e-6 0.68627,-0.153477 0.8909,-0.460436 0.20619,-0.308507 0.30902,-0.754991 0.30902,-1.339453 0,-0.58601 -0.10283,-1.032494 -0.30902,-1.339453 -0.20463,-0.308507 -0.50178,-0.462505 -0.8909,-0.462505 -0.001,0 -0.002,-3e-6 -0.004,0 z"
       id="path3959"
       inkscape:connector-curvature="0" />
    <path
       style="font-style:normal;font-weight:normal;font-size:medium;line-height:125%;font-family:Sans;letter-spacing:0px;word-spacing:0px;fill:url(#linearGradient4065);fill-opacity:1;stroke:none;stroke-width:0.26458332px;stroke-linecap:butt;stroke-linejoin:miter;stroke-opacity:1"
       d="m 143.74883,74.759779 c 0.18753,-0.882492 0.28422,-1.704959 0.28422,-2.462382 0,-0.111726 -0.003,-0.220954 -0.007,-0.329695 -0.005,-1.24e-4 -0.01,-0.0021 -0.0155,-0.0021 -0.24185,0 -0.42374,0.119372 -0.54622,0.358118 -0.12092,0.237194 -0.18138,0.594278 -0.18138,1.071769 0,0.475941 0.0605,0.833541 0.18138,1.072285 0.0728,0.141012 0.16922,0.234794 0.28422,0.291973 z"
       id="path3957"
       inkscape:connector-curvature="0" />
    <path
       style="font-style:normal;font-weight:normal;font-size:medium;line-height:125%;font-family:Sans;letter-spacing:0px;word-spacing:0px;fill:url(#linearGradient4067);fill-opacity:1;stroke:none;stroke-width:0.26458332px;stroke-linecap:butt;stroke-linejoin:miter;stroke-opacity:1"
       d="m 141.53604,79.593592 c -0.10563,0.145153 -0.21442,0.28947 -0.32659,0.432533 v 2.644283 h -0.7674 v 0.395324 h 1.99988 v -0.395324 h -0.7674 V 79.59359 Z"
       id="path3955"
       inkscape:connector-curvature="0" />
    <path
       style="font-style:normal;font-weight:normal;font-size:medium;line-height:125%;font-family:Sans;letter-spacing:0px;word-spacing:0px;fill:url(#linearGradient4069);fill-opacity:1;stroke:none;stroke-width:0.26458332px;stroke-linecap:butt;stroke-linejoin:miter;stroke-opacity:1"
       d="m 139.11707,82.241492 c -0.11778,0.104928 -0.23728,0.209301 -0.35915,0.312642 0.22306,0.01275 0.39391,0.127735 0.50798,0.352951 0.12246,0.237197 0.18345,0.594278 0.18345,1.071769 0,0.475941 -0.061,0.833549 -0.18345,1.072285 -0.12092,0.237196 -0.30334,0.355536 -0.54674,0.355536 -0.24184,0 -0.42375,-0.11834 -0.54622,-0.355536 -0.12093,-0.238736 -0.18138,-0.596344 -0.18138,-1.072285 0,-0.370464 0.0373,-0.666633 0.11007,-0.892453 -0.10443,0.0814 -0.20659,0.1636 -0.31368,0.243914 -0.0791,0.0593 -0.1598,0.116872 -0.23978,0.175184 -0.0174,0.14714 -0.0289,0.302493 -0.0289,0.473355 0,0.584462 0.10232,1.030946 0.30696,1.339453 0.20619,0.306959 0.50385,0.460436 0.89297,0.460436 0.38913,0 0.68626,-0.153477 0.8909,-0.460436 0.20619,-0.308507 0.30902,-0.754991 0.30902,-1.339453 0,-0.58601 -0.10283,-1.032494 -0.30902,-1.339453 -0.1281,-0.193111 -0.29262,-0.325676 -0.49299,-0.397909 z"
       id="path3953"
       inkscape:connector-curvature="0" />
    <path
       style="font-style:normal;font-weight:normal;font-size:medium;line-height:125%;font-family:Sans;letter-spacing:0px;word-spacing:0px;fill:url(#linearGradient4071);fill-opacity:1;stroke:none;stroke-width:0.26458332px;stroke-linecap:butt;stroke-linejoin:miter;stroke-opacity:1"
       d="m 138.10163,83.086401 c 0.22468,-0.175141 0.44397,-0.352213 0.65629,-0.532267 -0.0134,-7.94e-4 -0.0249,-0.0052 -0.0388,-0.0052 -0.24184,0 -0.42375,0.119375 -0.54622,0.358119 -0.0271,0.05317 -0.0503,0.114081 -0.0713,0.179316 z"
       id="path3951"
       inkscape:connector-curvature="0" />
    <path
       style="font-style:normal;font-weight:normal;font-size:medium;line-height:125%;font-family:Sans;letter-spacing:0px;word-spacing:0px;fill:url(#linearGradient4073);fill-opacity:1;stroke:none;stroke-width:0.26458332px;stroke-linecap:butt;stroke-linejoin:miter;stroke-opacity:1"
       d="m 129.27323,87.304233 c -0.16334,0.03865 -0.32738,0.07355 -0.49145,0.108521 -0.0272,0.106199 -0.0583,0.204491 -0.0992,0.284218 -0.12092,0.237197 -0.30334,0.355534 -0.54673,0.355537 -0.24185,0 -0.42375,-0.11834 -0.54622,-0.355537 -0.009,-0.01789 -0.0154,-0.04123 -0.0238,-0.06046 -0.14288,0.02222 -0.28571,0.04576 -0.42891,0.06511 -0.011,0.0019 -0.0181,0.0024 -0.0289,0.0041 0.0385,0.09477 0.0835,0.180983 0.13487,0.258382 0.20619,0.306959 0.50385,0.460438 0.89297,0.460435 0.38912,3e-6 0.68626,-0.153476 0.89091,-0.460435 0.11645,-0.17425 0.19581,-0.397627 0.24649,-0.659908 z"
       id="path3949"
       inkscape:connector-curvature="0" />
    <path
       style="font-style:normal;font-weight:normal;font-size:medium;line-height:125%;font-family:Sans;letter-spacing:0px;word-spacing:0px;fill:url(#linearGradient4075);fill-opacity:1;stroke:none;stroke-width:0.26458332px;stroke-linecap:butt;stroke-linejoin:miter;stroke-opacity:1"
       d="m 127.56583,87.636512 c 0.40704,-0.06328 0.81245,-0.137755 1.21595,-0.223758 0.0543,-0.211767 0.0842,-0.47109 0.0842,-0.788067 0,-0.47749 -0.061,-0.834575 -0.18345,-1.071768 -0.0297,-0.05873 -0.0636,-0.110231 -0.10076,-0.154514 -0.30209,0.03139 -0.61685,0.05505 -0.94,0.07442 -0.0175,0.02651 -0.0366,0.04971 -0.0522,0.0801 -0.12092,0.237193 -0.18139,0.594278 -0.18139,1.071768 0,0.440267 0.0541,0.774528 0.15761,1.011825 z"
       id="path3947"
       inkscape:connector-curvature="0" />
    <path
       style="font-style:normal;font-weight:normal;font-size:medium;line-height:125%;font-family:Sans;letter-spacing:0px;word-spacing:0px;fill:url(#linearGradient4077);fill-opacity:1;stroke:none;stroke-width:0.26458332px;stroke-linecap:butt;stroke-linejoin:miter;stroke-opacity:1"
       d="m 127.64183,85.472821 c 0.12014,-0.181835 0.28297,-0.278021 0.49403,-0.278021 0.18352,0 0.33207,0.06788 0.44597,0.203605 0.1623,-0.01685 0.32208,-0.03595 0.47903,-0.05633 -0.0114,-0.01894 -0.022,-0.03885 -0.0341,-0.05684 -0.20464,-0.308506 -0.50178,-0.462505 -0.8909,-0.462505 -0.38913,0 -0.68678,0.153999 -0.89297,0.462505 -0.0423,0.06349 -0.0791,0.134374 -0.11266,0.209807 0.17157,-0.0068 0.34621,-0.01233 0.5116,-0.02223 z"
       id="path3945"
       inkscape:connector-curvature="0" />
    <path
       style="font-style:normal;font-weight:normal;font-size:medium;line-height:125%;font-family:Sans;letter-spacing:0px;word-spacing:0px;fill:url(#linearGradient4079);fill-opacity:1;stroke:none;stroke-width:0.26458332px;stroke-linecap:butt;stroke-linejoin:miter;stroke-opacity:1"
       d="m 139.02873,69.436074 c -0.13343,-0.148387 -0.27321,-0.290587 -0.42116,-0.425815 h -0.0486 l -0.83044,0.167431 v 0.427881 l 0.83509,-0.167431 v 2.648934 h -0.76739 v 0.395325 h 1.99988 v -0.395325 h -0.7674 z"
       id="path3943"
       inkscape:connector-curvature="0" />
    <path
       style="font-style:normal;font-weight:normal;font-size:medium;line-height:125%;font-family:Sans;letter-spacing:0px;word-spacing:0px;fill:url(#linearGradient4081);fill-opacity:1;stroke:none;stroke-width:0.26458332px;stroke-linecap:butt;stroke-linejoin:miter;stroke-opacity:1"
       d="m 121.06807,87.902646 c -0.24708,-0.003 -0.55396,-0.0073 -0.64492,-0.0155 0.133,0.0536 0.2422,0.154168 0.32194,0.311608 0.12247,0.237194 0.18345,0.594278 0.18345,1.071769 0,0.475941 -0.061,0.833551 -0.18345,1.072285 -0.12092,0.237196 -0.30334,0.355536 -0.54673,0.355536 -0.24185,0 -0.42375,-0.11834 -0.54622,-0.355536 -0.12092,-0.238734 -0.18139,-0.596344 -0.18139,-1.072285 0,-0.477491 0.0605,-0.834575 0.18139,-1.071769 0.12247,-0.238747 0.30437,-0.358119 0.54622,-0.358119 -0.17346,-0.104081 -0.24288,-0.208483 -0.24288,-0.347265 0,-5.29e-4 -10e-6,-0.0011 0,-0.0016 -0.27215,0.05293 -0.48926,0.198604 -0.65009,0.439251 -0.20464,0.306959 -0.30696,0.753443 -0.30696,1.339453 0,0.584462 0.10232,1.030946 0.30696,1.339453 0.20619,0.306959 0.50384,0.460436 0.89297,0.460436 0.38912,3e-6 0.68626,-0.153477 0.8909,-0.460436 0.20618,-0.308507 0.30902,-0.754991 0.30902,-1.339453 0,-0.58601 -0.10284,-1.032494 -0.30902,-1.339453 -0.007,-0.01008 -0.0143,-0.01865 -0.0212,-0.02842 z"
       id="path3941"
       inkscape:connector-curvature="0" />
    <path
       style="font-style:normal;font-weight:normal;font-size:medium;line-height:125%;font-family:Sans;letter-spacing:0px;word-spacing:0px;fill:url(#linearGradient4083);fill-opacity:1;stroke:none;stroke-width:0.26458332px;stroke-linecap:butt;stroke-linejoin:miter;stroke-opacity:1"
       d="m 120.19836,87.840636 c 0.0454,0.0227 0.11072,0.03625 0.22479,0.04651 -0.0687,-0.02769 -0.1419,-0.04651 -0.22479,-0.04651 z"
       id="path3939"
       inkscape:connector-curvature="0" />
    <path
       style="font-style:normal;font-weight:normal;font-size:medium;line-height:125%;font-family:Sans;letter-spacing:0px;word-spacing:0px;fill:url(#linearGradient4085);fill-opacity:1;stroke:none;stroke-width:0.26458332px;stroke-linecap:butt;stroke-linejoin:miter;stroke-opacity:1"
       d="m 125.07971,77.668132 c 0.0233,-0.08868 0.0484,-0.176853 0.0713,-0.265618 H 81.09169 v 0.265618 z"
       id="path3937"
       inkscape:connector-curvature="0" />
    <path
       style="font-style:normal;font-weight:normal;font-size:medium;line-height:125%;font-family:Sans;letter-spacing:0px;word-spacing:0px;fill:url(#linearGradient3831);fill-opacity:1;stroke:none;stroke-width:0.26458332px;stroke-linecap:butt;stroke-linejoin:miter;stroke-opacity:1"
       d="m 133.43424,64.238978 c -0.006,-1.72e-4 -0.0119,-2.65e-4 -0.0181,-5.3e-4 0.004,6.6e-5 0.007,0.0016 0.0114,0.0016 0.002,0 0.004,-0.0011 0.007,-0.0011 z"
       id="path1860"
       inkscape:connector-curvature="0" />
    <path
       style="font-style:normal;font-weight:normal;font-size:medium;line-height:125%;font-family:Sans;letter-spacing:0px;word-spacing:0px;fill:url(#linearGradient3837);fill-opacity:1;stroke:none;stroke-width:0.26458332px;stroke-linecap:butt;stroke-linejoin:miter;stroke-opacity:1"
       d="m 143.08767,80.024323 h 0.7674 v -2.648676 l -0.83484,0.167432 v -0.427881 l 0.83018,-0.167432 h 0.46974 v 3.076557 h 0.7674 v 0.395324 h -1.99988 z"
       id="path1845"
       inkscape:connector-curvature="0" />
    <path
       style="font-style:normal;font-weight:normal;font-size:medium;line-height:125%;font-family:Sans;letter-spacing:0px;word-spacing:0px;fill:url(#linearGradient3839);fill-opacity:1;stroke:none;stroke-width:0.26458332px;stroke-linecap:butt;stroke-linejoin:miter;stroke-opacity:1"
       d="m 131.8429,90.985622 h 0.76739 v -2.648675 l -0.83483,0.167431 v -0.427881 l 0.83018,-0.167431 h 0.46974 v 3.076556 h 0.7674 v 0.395325 h -1.99988 z"
       id="path1842"
       inkscape:connector-curvature="0" />
    <path
       style="font-style:normal;font-weight:normal;font-size:medium;line-height:125%;font-family:Sans;letter-spacing:0px;word-spacing:0px;fill:url(#linearGradient3841);fill-opacity:1;stroke:none;stroke-width:0.26458332px;stroke-linecap:butt;stroke-linejoin:miter;stroke-opacity:1"
       d="m 103.40018,72.086823 h 0.76739 v -2.648676 l -0.83483,0.167432 v -0.427881 l 0.83018,-0.167432 h 0.46974 v 3.076557 h 0.7674 v 0.395324 h -1.99988 z"
       id="path1830"
       inkscape:connector-curvature="0" />
    <path
       style="font-style:normal;font-weight:normal;font-size:medium;line-height:125%;font-family:Sans;letter-spacing:0px;word-spacing:0px;fill:url(#linearGradient3843);fill-opacity:1;stroke:none;stroke-width:0.26458332px;stroke-linecap:butt;stroke-linejoin:miter;stroke-opacity:1"
       d="m 118.42473,66.700657 h 0.76739 v -2.648676 l -0.83483,0.167432 v -0.427881 l 0.83018,-0.167432 h 0.46974 v 3.076557 h 0.7674 v 0.395324 h -1.99988 z"
       id="path1827"
       inkscape:connector-curvature="0" />
    <path
       style="font-style:normal;font-weight:normal;font-size:medium;line-height:125%;font-family:Sans;letter-spacing:0px;word-spacing:0px;fill:url(#linearGradient3845);fill-opacity:1;stroke:none;stroke-width:0.26458332px;stroke-linecap:butt;stroke-linejoin:miter;stroke-opacity:1"
       d="m 116.62936,74.732651 h 0.76739 v -2.648676 l -0.83483,0.167432 v -0.427881 l 0.83018,-0.167432 h 0.46974 v 3.076557 h 0.7674 v 0.395324 h -1.99988 z"
       id="path1824"
       inkscape:connector-curvature="0" />
    <path
       style="font-style:normal;font-weight:normal;font-size:medium;line-height:125%;font-family:Sans;letter-spacing:0px;word-spacing:0px;fill:url(#linearGradient4032);fill-opacity:1;stroke:none;stroke-width:0.99999994px;stroke-linecap:butt;stroke-linejoin:miter;stroke-opacity:1"
       d="m 524.29297,220.58984 c -1.47069,0 -2.59571,0.58204 -3.375,1.74805 -0.77344,1.16016 -1.16016,2.84766 -1.16016,5.0625 0,2.20899 0.38672,3.89649 1.16016,5.0625 0.77929,1.16016 1.90431,1.74023 3.375,1.74023 1.47071,0 2.59374,-0.58007 3.36719,-1.74023 0.77928,-1.16601 1.16796,-2.85351 1.16796,-5.0625 0,-2.21484 -0.38868,-3.90234 -1.16796,-5.0625 -0.77345,-1.16601 -1.89648,-1.74805 -3.36719,-1.74805 z m 20,0 c -1.47069,0 -2.59569,0.58204 -3.375,1.74805 -0.77344,1.16016 -1.16016,2.84766 -1.16016,5.0625 0,2.20899 0.38672,3.89649 1.16016,5.0625 0.77931,1.16016 1.90431,1.74023 3.375,1.74023 1.47071,0 2.59377,-0.58007 3.36719,-1.74023 0.77931,-1.16601 1.16796,-2.85351 1.16796,-5.0625 0,-2.21484 -0.38865,-3.90234 -1.16796,-5.0625 -0.77342,-1.16601 -1.89648,-1.74805 -3.36719,-1.74805 z m -20,1.40625 c 0.91994,0 1.60938,0.45117 2.06641,1.35352 0.46289,0.89648 0.69335,2.24609 0.69335,4.05078 0,1.79883 -0.23046,3.15039 -0.69335,4.05273 -0.45703,0.89649 -1.14647,1.34375 -2.06641,1.34376 -0.91404,-10e-6 -1.60156,-0.44727 -2.06445,-1.34376 -0.45705,-0.90234 -0.68555,-2.2539 -0.68555,-4.05273 0,-1.80469 0.2285,-3.1543 0.68555,-4.05078 0.46289,-0.90235 1.15041,-1.35352 2.06445,-1.35352 z m 20,0 c 0.91991,0 1.60936,0.45117 2.06641,1.35352 0.46289,0.89648 0.69335,2.24609 0.69335,4.05078 0,1.79883 -0.23046,3.15039 -0.69335,4.05273 -0.45705,0.89649 -1.1465,1.34375 -2.06641,1.34376 -0.91407,-10e-6 -1.60156,-0.44727 -2.06445,-1.34376 -0.45702,-0.90234 -0.68555,-2.2539 -0.68555,-4.05273 0,-1.80469 0.22853,-3.1543 0.68555,-4.05078 0.46289,-0.90235 1.15038,-1.35352 2.06445,-1.35352 z m 10,8.59375 c -1.47069,0 -2.59571,0.58203 -3.375,1.74805 -0.77344,1.16016 -1.16016,2.84766 -1.16016,5.0625 0,2.20899 0.38672,3.89649 1.16016,5.0625 0.77929,1.16016 1.90431,1.74023 3.375,1.74023 1.47071,10e-6 2.59374,-0.58007 3.36719,-1.74023 0.77928,-1.16601 1.16796,-2.85351 1.16796,-5.0625 0,-2.21484 -0.38868,-3.90234 -1.16796,-5.0625 -0.77345,-1.16602 -1.89648,-1.74805 -3.36719,-1.74805 z m 0,1.40625 c 0.91994,0 1.60938,0.45118 2.06641,1.35352 0.46289,0.89649 0.69335,2.24609 0.69335,4.05078 0,1.79883 -0.23046,3.15039 -0.69335,4.05273 -0.45703,0.89649 -1.14647,1.34375 -2.06641,1.34376 -0.91404,-10e-6 -1.60156,-0.44727 -2.06445,-1.34376 -0.45705,-0.90234 -0.68555,-2.2539 -0.68555,-4.05273 0,-1.80469 0.2285,-3.15429 0.68555,-4.05078 0.46289,-0.90234 1.15041,-1.35352 2.06445,-1.35352 z"
       transform="scale(0.26458333)"
       id="path3991"
       inkscape:connector-curvature="0" />
    <path
       style="font-style:normal;font-weight:normal;font-size:medium;line-height:125%;font-family:Sans;letter-spacing:0px;word-spacing:0px;fill:url(#linearGradient3849);fill-opacity:1;stroke:none;stroke-width:0.26458332px;stroke-linecap:butt;stroke-linejoin:miter;stroke-opacity:1"
       d="m 143.08767,87.983765 h 0.7674 v -2.648676 l -0.83484,0.167432 V 85.07464 l 0.83018,-0.167432 h 0.46974 v 3.076557 h 0.7674 v 0.395324 h -1.99988 z"
       id="path1809"
       inkscape:connector-curvature="0" />
    <path
       style="font-style:normal;font-weight:normal;font-size:medium;line-height:125%;font-family:Sans;letter-spacing:0px;word-spacing:0px;fill:url(#linearGradient4035);fill-opacity:1;stroke:none;stroke-width:0.99999994px;stroke-linecap:butt;stroke-linejoin:miter;stroke-opacity:1"
       d="m 559.29297,290.58984 c -1.47069,0 -2.59569,0.58203 -3.375,1.74805 -0.77344,1.16016 -1.16016,2.84766 -1.16016,5.0625 0,2.20899 0.38672,3.89649 1.16016,5.0625 0.77931,1.16016 1.90431,1.74023 3.375,1.74023 1.47071,10e-6 2.59377,-0.58007 3.36719,-1.74023 0.77931,-1.16601 1.16796,-2.85351 1.16796,-5.0625 0,-2.21484 -0.38865,-3.90234 -1.16796,-5.0625 -0.77342,-1.16602 -1.89648,-1.74805 -3.36719,-1.74805 z m 0,1.40625 c 0.91991,0 1.60936,0.45118 2.06641,1.35352 0.46289,0.89649 0.69335,2.24609 0.69335,4.05078 0,1.79883 -0.23046,3.15039 -0.69335,4.05273 -0.45705,0.89649 -1.1465,1.34376 -2.06641,1.34376 -0.91407,-10e-6 -1.60156,-0.44727 -2.06445,-1.34376 -0.45702,-0.90234 -0.68555,-2.2539 -0.68555,-4.05273 0,-1.80469 0.22853,-3.15429 0.68555,-4.05078 0.46289,-0.90234 1.15038,-1.35352 2.06445,-1.35352 z m -5,18.59375 c -1.47069,0 -2.59571,0.58204 -3.375,1.74805 -0.77344,1.16016 -1.16016,2.84766 -1.16016,5.0625 0,2.20899 0.38672,3.89649 1.16016,5.0625 0.77929,1.16016 1.90431,1.74023 3.375,1.74023 1.47071,10e-6 2.59374,-0.58007 3.36719,-1.74023 0.77928,-1.16601 1.16796,-2.85351 1.16796,-5.0625 0,-2.21484 -0.38868,-3.90234 -1.16796,-5.0625 -0.77345,-1.16601 -1.89648,-1.74805 -3.36719,-1.74805 z m 0,1.40625 c 0.91994,0 1.60938,0.45118 2.06641,1.35352 0.46289,0.89649 0.69335,2.24609 0.69335,4.05078 0,1.79883 -0.23046,3.15039 -0.69335,4.05273 -0.45703,0.89649 -1.14647,1.34376 -2.06641,1.34376 -0.91404,0 -1.60156,-0.44727 -2.06445,-1.34376 -0.45705,-0.90234 -0.68555,-2.2539 -0.68555,-4.05273 0,-1.80469 0.2285,-3.15429 0.68555,-4.05078 0.46289,-0.90234 1.15041,-1.35352 2.06445,-1.35352 z"
       transform="scale(0.26458333)"
       id="path3997"
       inkscape:connector-curvature="0" />
    <path
       style="font-style:normal;font-weight:normal;font-size:medium;line-height:125%;font-family:Sans;letter-spacing:0px;word-spacing:0px;fill:url(#linearGradient3853);fill-opacity:1;stroke:none;stroke-width:0.26458332px;stroke-linecap:butt;stroke-linejoin:miter;stroke-opacity:1"
       d="m 143.08767,66.795151 h 0.7674 v -2.648676 l -0.83484,0.167432 v -0.427881 l 0.83018,-0.167432 h 0.46974 v 3.076557 h 0.7674 v 0.395324 h -1.99988 z"
       id="path1800"
       inkscape:connector-curvature="0" />
    <path
       style="font-style:normal;font-weight:normal;font-size:medium;line-height:125%;font-family:Sans;letter-spacing:0px;word-spacing:0px;fill:url(#linearGradient3859);fill-opacity:1;stroke:none;stroke-width:0.26458332px;stroke-linecap:butt;stroke-linejoin:miter;stroke-opacity:1"
       d="m 145.73351,70.763901 h 0.7674 v -2.648676 l -0.83483,0.167432 v -0.427881 l 0.83018,-0.167432 h 0.46974 v 3.076557 h 0.76739 v 0.395324 h -1.99988 z"
       id="path1791"
       inkscape:connector-curvature="0" />
    <path
       style="font-style:normal;font-weight:normal;font-size:medium;line-height:125%;font-family:Sans;letter-spacing:0px;word-spacing:0px;fill:url(#linearGradient3863);fill-opacity:1;stroke:none;stroke-width:0.26458332px;stroke-linecap:butt;stroke-linejoin:miter;stroke-opacity:1"
       d="m 145.92249,76.055565 h 0.7674 v -2.648676 l -0.83483,0.167432 V 73.14644 l 0.83018,-0.167431 h 0.46974 v 3.076556 h 0.76739 v 0.395325 h -1.99988 z"
       id="path1785"
       inkscape:connector-curvature="0" />
    <path
       style="font-style:normal;font-weight:normal;font-size:medium;line-height:125%;font-family:Sans;letter-spacing:0px;word-spacing:0px;fill:url(#linearGradient3867);fill-opacity:1;stroke:none;stroke-width:0.26458332px;stroke-linecap:butt;stroke-linejoin:miter;stroke-opacity:1"
       d="m 146.86744,90.513153 h 0.7674 V 87.864478 L 146.8,88.031909 v -0.427881 l 0.83018,-0.167431 h 0.46974 v 3.076556 h 0.7674 v 0.395325 h -1.99988 z"
       id="path1779"
       inkscape:connector-curvature="0" />
    <path
       style="font-style:normal;font-weight:normal;font-size:medium;line-height:125%;font-family:Sans;letter-spacing:0px;word-spacing:0px;fill:url(#linearGradient3873);fill-opacity:1;stroke:none;stroke-width:0.26458332px;stroke-linecap:butt;stroke-linejoin:miter;stroke-opacity:1"
       d="m 139.04994,90.019641 h 0.7674 v -2.648676 l -0.83483,0.167432 v -0.427881 l 0.83018,-0.167431 h 0.46974 v 3.076556 h 0.76739 v 0.395325 h -1.99988 z"
       id="path1785-5"
       inkscape:connector-curvature="0" />
  </g>
</svg>
